<svg width="44" height="44" viewBox="0 0 44 44" fill="none" xmlns="http://www.w3.org/2000/svg">
<path d="M11.5918 35.4649L17.4052 30.0234H26.2636L32.3538 35.4649C31.4864 37.4914 27.74 41.0002 21.9267 41.0002C15.6519 41.0002 12.4223 37.1348 11.5918 35.4649Z" fill="#FFEEC1"/>
<path d="M25.0642 4.31661C19.8968 2.44025 18.1066 10.0395 17.959 13.7922V14.449L22.2037 12.0097L26.0792 14.1675L26.5406 13.7922C25.2119 10.8651 25.6732 7.8817 26.0792 6.66206L25.0642 4.31661Z" fill="#FFEEC1"/>
<path d="M27.6482 4.50522C27.1314 3.90478 25.4889 4.07366 25.0645 4.31758L26.0795 6.66303C25.9318 5.16195 27.2791 4.67409 27.6482 4.50522Z" fill="#E6A833"/>
<path fill-rule="evenodd" clip-rule="evenodd" d="M27.1114 4.09688C27.3535 4.16412 27.5726 4.27298 27.7185 4.44253L27.8006 4.53788L27.6869 4.58987C27.663 4.60081 27.6356 4.61287 27.6052 4.62623C27.3938 4.71918 27.0396 4.87494 26.7324 5.15364C26.3856 5.46825 26.1018 5.93748 26.1722 6.65279L25.9959 6.69991L24.9473 4.27677L25.0199 4.235C25.1398 4.16613 25.3343 4.10763 25.559 4.06633C25.7863 4.02456 26.0532 3.99884 26.323 4.00004C26.5925 4.00124 26.868 4.02929 27.1114 4.09688ZM25.1858 4.36202L25.9882 6.21623C26.0449 5.67587 26.3064 5.28865 26.6095 5.01364C26.9158 4.73572 27.2666 4.5711 27.4836 4.47517C27.3749 4.39012 27.2314 4.32473 27.0627 4.27788C26.8395 4.21589 26.581 4.18882 26.3222 4.18767C26.0637 4.18653 25.8081 4.21123 25.5919 4.25097C25.423 4.282 25.2833 4.32129 25.1858 4.36202Z" fill="white"/>
<path d="M23.8657 6.19306C24.1205 6.19306 24.3271 5.98304 24.3271 5.72397C24.3271 5.4649 24.1205 5.25488 23.8657 5.25488C23.6109 5.25488 23.4043 5.4649 23.4043 5.72397C23.4043 5.98304 23.6109 6.19306 23.8657 6.19306Z" fill="#4E495E"/>
<path d="M15.4299 9.75779C14.2488 8.01278 12.3479 7.78762 11.5543 7.9002C10.3178 7.9002 7.1989 8.51939 4.63363 11.015C4.30144 11.3339 3.30486 12.1971 2.16065 12.1971C2.99113 12.9288 4.3199 12.4785 4.3199 12.4785C4.3199 12.4785 4.41217 13.9796 2.013 17.0756L4.06153 16.1374C4.06153 16.1374 4.22762 18.7643 2.73275 21.6164L4.63363 19.6274C4.76282 21.2411 4.44908 26.2885 3.2495 27.602L3.04649 27.7896C3.12031 27.7333 3.19413 27.677 3.2495 27.602L5.13192 25.932C4.72591 28.7653 3.17568 35.3889 0.259766 39.2354C1.82845 38.7851 6.25769 37.0588 10.7423 30.454C11.4805 29.4783 12.9754 27.0015 14.1196 25.8194C14.784 25.0689 15.4483 24.506 15.4483 24.506V19.6274L18.1797 16.0999L17.6076 14.1672C17.2754 14.8615 16.3896 15.856 15.4668 14.1672C15.9282 13.4167 16.611 11.5216 15.4299 9.75779Z" fill="#3A3542"/>
<path fill-rule="evenodd" clip-rule="evenodd" d="M15.3358 9.79195C14.1805 8.06669 12.3202 7.86511 11.5493 7.97447L11.5429 7.97537H11.5365C10.3195 7.97537 7.22489 8.58802 4.67965 11.0641L4.67922 11.0645C4.51064 11.2264 4.17724 11.5273 3.73726 11.788C3.36316 12.0097 2.90794 12.2048 2.40859 12.258C2.76175 12.4714 3.17529 12.517 3.52954 12.4999C3.7411 12.4896 3.92784 12.4571 4.06169 12.4272C4.12852 12.4122 4.18192 12.3979 4.21835 12.3875C4.23656 12.3823 4.25052 12.378 4.25976 12.3751C4.26439 12.3737 4.26784 12.3725 4.27005 12.3718L4.27244 12.371L4.27293 12.3709L4.38673 12.3323L4.39422 12.454L4.30212 12.4599C4.39422 12.454 4.39421 12.4539 4.39422 12.454L4.39424 12.4544L4.39427 12.4549L4.39434 12.4564L4.39453 12.461C4.39466 12.4648 4.39479 12.47 4.39484 12.4768C4.39495 12.4902 4.39473 12.5096 4.39357 12.5348C4.39126 12.5853 4.38515 12.6594 4.37024 12.7572C4.3404 12.9528 4.27534 13.2433 4.13493 13.6299C3.87239 14.3528 3.34648 15.4119 2.29487 16.8168L4.12735 15.9776L4.13584 16.1128L4.04375 16.1188C4.13584 16.1128 4.13583 16.1128 4.13584 16.1128L4.13585 16.113L4.13588 16.1135L4.13598 16.1152L4.13632 16.1214C4.13646 16.124 4.13662 16.1271 4.13679 16.1307C4.13699 16.1348 4.13721 16.1396 4.13744 16.1451C4.13832 16.1659 4.1394 16.1964 4.14022 16.236C4.14187 16.3153 4.14252 16.4312 4.13859 16.579C4.13072 16.8744 4.10451 17.2974 4.03125 17.8093C3.90355 18.7017 3.63269 19.8656 3.06586 21.096L4.69218 19.3943L4.70786 19.6016C4.7731 20.4639 4.71712 22.277 4.47187 23.9919C4.3492 24.8496 4.17864 25.6867 3.95062 26.3701C3.86666 26.6217 3.77397 26.8555 3.67148 27.0629L5.24317 25.6752L5.20537 25.9275C4.99242 27.349 4.4976 29.7183 3.69313 32.2143C2.92021 34.6125 1.85923 37.1347 0.483199 39.0457C2.22838 38.4889 6.41113 36.6229 10.6486 30.3821L10.6497 30.3805L10.6509 30.3789C10.8769 30.0743 11.1717 29.6331 11.5069 29.1313C11.7171 28.8167 11.9432 28.4783 12.1782 28.1349C12.7842 27.2494 13.4474 26.3339 14.0348 25.7362C14.3689 25.359 14.7025 25.0292 14.9526 24.7938C15.078 24.6758 15.1824 24.5814 15.2557 24.5163C15.2908 24.4852 15.3187 24.4608 15.3383 24.4438V19.5763L18.0593 16.0621L17.5302 14.3504C17.4589 14.4712 17.3739 14.5933 17.2769 14.7039C17.1267 14.8753 16.9428 15.0248 16.7324 15.094C16.5179 15.1644 16.2825 15.1489 16.0416 15.0015C15.8044 14.8564 15.5662 14.5863 15.3315 14.1566L15.3036 14.1056L15.3362 14.0577C15.8227 13.3433 16.487 11.4927 15.3361 9.79234L15.3358 9.79195ZM3.1585 27.5158L2.94976 27.7001L3.06145 27.849C3.14018 27.7957 3.21517 27.7292 3.28661 27.6512L4.98349 26.153C4.75353 27.5838 4.27264 29.8137 3.51775 32.1559C2.71623 34.6428 1.60821 37.2487 0.16873 39.1597L0 39.3837L0.267063 39.3071C1.85439 38.8514 6.30184 37.1133 10.7993 30.4903C11.0277 30.1826 11.3269 29.7348 11.6641 29.23C11.8739 28.916 12.0984 28.58 12.3297 28.242C12.9366 27.3552 13.5922 26.4516 14.1671 25.8671L14.1688 25.8654L14.1704 25.8636C14.5002 25.491 14.8302 25.1647 15.078 24.9315C15.2019 24.8149 15.305 24.7217 15.3771 24.6577C15.4131 24.6257 15.4414 24.601 15.4606 24.5844C15.4702 24.5761 15.4775 24.5698 15.4824 24.5656L15.4879 24.5609L15.4896 24.5595L15.5228 24.5313V19.6413L18.2646 16.1004L17.5714 13.858L17.4699 14.07C17.3898 14.2374 17.2766 14.4222 17.1391 14.579C17.0011 14.7365 16.8435 14.8603 16.6756 14.9154C16.5118 14.9692 16.3319 14.9601 16.1368 14.8407C15.9461 14.7241 15.7372 14.4995 15.5205 14.1155C16.0268 13.3335 16.6738 11.4381 15.4883 9.68626C14.2845 7.88872 12.3501 7.67394 11.5302 7.78774C10.27 7.78985 7.13316 8.41769 4.55227 10.9283C4.38858 11.0855 4.06692 11.3755 3.64433 11.6259C3.22105 11.8768 2.70211 12.0846 2.14287 12.0846H1.8955L2.08243 12.2493C2.52365 12.6381 3.09199 12.7089 3.53831 12.6873C3.76276 12.6764 3.96011 12.642 4.10136 12.6104C4.1404 12.6017 4.17523 12.5931 4.20524 12.5853C4.20194 12.6238 4.19656 12.6714 4.18786 12.7284C4.16003 12.911 4.09821 13.1893 3.9618 13.5649C3.68894 14.3163 3.11758 15.457 1.92275 16.9989L2.03313 17.1425L3.95612 16.2618C3.95739 16.3373 3.9576 16.4425 3.9541 16.5739C3.9464 16.863 3.92071 17.2786 3.84863 17.7823C3.70443 18.7899 3.37484 20.1486 2.63366 21.5534L2.78116 21.6631L4.53643 19.8265C4.57831 20.7362 4.51438 22.3906 4.28924 23.9649C4.16738 24.817 3.99882 25.6416 3.77585 26.3098C3.59938 26.8387 3.393 27.2562 3.1585 27.5158Z" fill="url(#paint0_linear_5158_281)"/>
<path fill-rule="evenodd" clip-rule="evenodd" d="M6.32777 11.2285C8.16848 9.35875 10.2837 8.79556 12.0672 8.90845L12.0787 8.72118C10.2454 8.60514 8.07595 9.18577 6.19432 11.0989L6.19136 11.1019L6.18868 11.1051C5.49003 11.9575 4.9024 12.8414 4.69169 14.4482C4.48193 16.0476 4.64616 18.359 5.43115 22.0678L5.43117 22.0679C6.3113 26.2065 5.80105 31.8663 1.47656 38.5083L1.63045 38.6118C5.97988 31.9316 6.50312 26.2207 5.61155 22.0283C4.82787 18.3255 4.66914 16.0398 4.87462 14.4729C5.07889 12.9154 5.6435 12.0638 6.32777 11.2285Z" fill="url(#paint1_linear_5158_281)"/>
<path fill-rule="evenodd" clip-rule="evenodd" d="M6.88576 11.8805C9.06895 9.27157 12.1412 9.36994 14.1613 10.1858L14.2295 10.0114C12.1631 9.1769 8.9947 9.06821 6.74303 11.7615L6.7409 11.7641L6.73896 11.7667C6.30052 12.3738 5.78346 13.1392 5.58916 14.641C5.39559 16.1372 5.52279 18.3593 6.3545 21.8827L6.35454 21.8828C7.27041 25.7379 6.44768 32.0542 2.76758 37.9472L2.92338 38.0478C6.62534 32.1198 7.46357 25.7518 6.53393 21.8388C5.7047 18.3259 5.58276 16.1292 5.77214 14.6655C5.9605 13.2095 6.45725 12.4739 6.88576 11.8805Z" fill="url(#paint2_linear_5158_281)"/>
<path fill-rule="evenodd" clip-rule="evenodd" d="M7.53181 12.2533C9.12767 10.0906 11.8294 10.0814 13.7958 10.7348L13.8532 10.5564C11.8555 9.89261 9.04974 9.8828 7.38366 12.1414L7.38365 12.1413L7.38268 12.1427C6.7722 13.0021 6.43821 13.8227 6.41248 15.2403C6.3869 16.6493 6.66573 18.6521 7.27458 21.8786C7.95324 25.4778 7.5141 31.3274 4.14844 37.1054L4.30723 37.201C7.69615 31.3831 8.14286 25.4868 7.45583 21.8432L7.45583 21.8432C6.84665 18.615 6.57182 16.6305 6.597 15.2438C6.62201 13.866 6.94301 13.0823 7.53181 12.2533Z" fill="url(#paint3_linear_5158_281)"/>
<path fill-rule="evenodd" clip-rule="evenodd" d="M8.17912 12.7194C9.59861 10.6879 12.0743 10.7233 13.8851 11.3943L13.9483 11.218C12.1063 10.5355 9.51951 10.4761 8.02808 12.6116L8.02806 12.6116L8.02696 12.6133C7.48838 13.4202 7.24485 14.233 7.27286 15.602C7.30072 16.9643 7.59759 18.8858 8.14171 21.9144C8.74728 25.31 8.50964 30.5415 5.53125 35.981L5.6925 36.0723C8.69357 30.5913 8.93576 25.3152 8.3233 21.8809L8.32328 21.8808C7.77855 18.8488 7.48487 16.9426 7.45737 15.5981C7.43002 14.2611 7.66614 13.4883 8.17912 12.7194Z" fill="url(#paint4_linear_5158_281)"/>
<path fill-rule="evenodd" clip-rule="evenodd" d="M9.01011 13.1905C10.3839 11.4623 12.2559 11.3963 13.703 11.9037L13.7632 11.7263C12.2653 11.2011 10.3001 11.2652 8.86297 13.077L8.85949 13.0814L8.85655 13.0862C8.38461 13.8539 8.15943 14.5946 8.18046 15.8746C8.20136 17.1476 8.46585 18.961 8.97311 21.8773C9.54211 25.1618 9.39637 29.5326 7.00586 34.674L7.17271 34.7542C9.58053 29.5756 9.73007 25.1651 9.15486 21.8447L9.15485 21.8447C8.64708 18.9255 8.3856 17.127 8.36498 15.8715C8.34452 14.6259 8.56128 13.9221 9.01011 13.1905Z" fill="url(#paint5_linear_5158_281)"/>
<path fill-rule="evenodd" clip-rule="evenodd" d="M9.84171 13.4721C10.9621 12.0663 12.6199 12.1116 13.8862 12.6054L13.9522 12.4302C12.6474 11.9214 10.887 11.8583 9.69502 13.3582L9.69188 13.3621L9.68917 13.3664C9.26447 14.0381 9.03355 14.693 9.01246 15.7795C8.9915 16.8591 9.17767 18.3685 9.5836 20.7509L9.58362 20.7511C10.0437 23.4266 10.4097 28.6017 8.29883 33.2673L8.46649 33.3458C10.6002 28.6297 10.2281 23.4098 9.76543 20.7189C9.35934 18.3354 9.17641 16.8426 9.19697 15.7832C9.21736 14.7329 9.43765 14.1124 9.84171 13.4721Z" fill="url(#paint6_linear_5158_281)"/>
<path fill-rule="evenodd" clip-rule="evenodd" d="M10.4895 13.9373C11.252 12.8012 12.5313 12.742 13.6156 13.0749L13.669 12.8953C12.5509 12.5521 11.1655 12.5961 10.3364 13.8325L10.3364 13.8324L10.3352 13.8343C10.1011 14.2012 9.91473 14.8019 9.8775 15.8121C9.84025 16.823 9.95212 18.2518 10.3219 20.2818C10.5238 21.4206 10.7309 23.3611 10.6918 25.4724C10.6527 27.5852 10.3672 29.8602 9.58984 31.6732L9.75902 31.7482C10.5504 29.9024 10.837 27.599 10.8763 25.4759C10.9156 23.3515 10.7075 21.3987 10.5035 20.2483L10.5034 20.2478C10.1349 18.2251 10.0254 16.8112 10.0619 15.8191C10.0985 14.8272 10.2809 14.2647 10.4895 13.9373Z" fill="url(#paint7_linear_5158_281)"/>
<path fill-rule="evenodd" clip-rule="evenodd" d="M11.1353 14.4016C11.6421 13.5505 12.5195 13.4097 13.3478 13.5859C13.7616 13.6739 14.1571 13.8406 14.4755 14.0319C14.7968 14.225 15.029 14.4367 15.128 14.6087L15.2873 14.5139C15.1648 14.3012 14.901 14.0696 14.5694 13.8704C14.235 13.6695 13.8208 13.4948 13.3856 13.4023C12.5167 13.2174 11.5399 13.3577 10.9762 14.3064L10.9752 14.3081L10.9742 14.3099C10.6255 14.96 10.318 16.5085 11.0573 20.0037L11.0573 20.0038C11.3045 21.1675 11.4889 23.2945 11.4843 25.3314C11.482 26.3492 11.4325 27.3415 11.3208 28.1775C11.2085 29.0176 11.035 29.6854 10.7932 30.0653L10.9481 30.1673C11.2139 29.7497 11.391 29.0454 11.5036 28.2027C11.6168 27.3558 11.6665 26.3545 11.6689 25.3318C11.6735 23.2876 11.4888 21.146 11.2377 19.9642M11.2377 19.9641C10.5013 16.4829 10.8199 14.9912 11.1353 14.4016Z" fill="url(#paint8_linear_5158_281)"/>
<path fill-rule="evenodd" clip-rule="evenodd" d="M11.7823 14.9634C12.1862 14.2574 12.916 14.1644 13.6195 14.3426C13.9702 14.4315 14.3067 14.5868 14.5775 14.7597C14.8512 14.9344 15.047 15.1203 15.1281 15.2645L15.2883 15.1714C15.1848 14.9873 14.9585 14.7814 14.6756 14.6008C14.39 14.4184 14.0355 14.2547 13.6641 14.1606C12.924 13.9731 12.0856 14.0581 11.6219 14.8706L11.6211 14.872L11.6204 14.8734C11.3269 15.4304 11.057 16.8105 11.7966 19.9308L11.7967 19.9313C12.1265 21.2911 12.2647 23.0373 12.2854 24.5987C12.3061 26.1618 12.209 27.5268 12.0732 28.125L12.253 28.1672C12.3941 27.5457 12.4907 26.1618 12.4699 24.5961C12.4491 23.0287 12.3105 21.2663 11.9759 19.8866C11.2398 16.7805 11.5224 15.4583 11.7823 14.9634Z" fill="url(#paint9_linear_5158_281)"/>
<path fill-rule="evenodd" clip-rule="evenodd" d="M13.0538 14.9499C12.8039 15.0214 12.5825 15.1921 12.4319 15.5202L12.4308 15.5225L12.4308 15.5225C12.3388 15.7096 12.2468 16.1144 12.249 16.7608C12.2513 17.404 12.347 18.2783 12.6223 19.3982L12.6223 19.3983C13.3828 22.5099 13.1786 26.1815 13.086 27.1233L12.9024 27.1047C12.9943 26.1702 13.1961 22.524 12.4433 19.4436C12.165 18.3118 12.0668 17.4224 12.0645 16.7615C12.0622 16.105 12.1544 15.6658 12.2651 15.4398C12.4375 15.065 12.7003 14.8561 13.0038 14.7693C13.3034 14.6836 13.6339 14.7193 13.9434 14.8137C14.2538 14.9084 14.5507 15.0643 14.7879 15.2289C15.0219 15.3913 15.2096 15.5703 15.2895 15.7165L15.1281 15.8076C15.0696 15.7005 14.9112 15.5417 14.6839 15.3839C14.4597 15.2283 14.1798 15.0817 13.8904 14.9934C13.6002 14.9049 13.3078 14.8773 13.0538 14.9499Z" fill="url(#paint10_linear_5158_281)"/>
<path fill-rule="evenodd" clip-rule="evenodd" d="M13.5506 15.514C13.3499 15.5487 13.1807 15.661 13.0787 15.8934L13.0779 15.8952L13.077 15.8971C12.9437 16.1682 12.754 17.0801 13.1764 18.835L13.1764 18.8351C14.1022 22.6945 13.8991 25.389 13.8244 26.0914L13.6409 26.0712C13.7139 25.385 13.9167 22.7132 12.9971 18.8796C12.5713 17.1103 12.7493 16.1461 12.911 15.815C13.0398 15.5232 13.2624 15.3734 13.5197 15.329C13.7721 15.2854 14.0528 15.3435 14.3101 15.4518C14.5683 15.5605 14.8118 15.7234 14.9922 15.9012C15.1681 16.0747 15.3013 16.2798 15.3013 16.4743H15.1168C15.1168 16.3592 15.0309 16.2008 14.8637 16.0359C14.7009 15.8754 14.4772 15.7252 14.2395 15.6252C14.0008 15.5247 13.7567 15.4784 13.5506 15.514Z" fill="url(#paint11_linear_5158_281)"/>
<path d="M16.2799 15.8473L16.7768 15.2061L16.9614 16.0257C16.8621 16.2329 16.6027 16.1287 16.2799 15.8473L14.6482 17.9529V19.1217C12.0823 19.0282 11.5559 15.0308 11.6135 13.7743V8.82133C12.2319 8.73366 13.7133 8.89438 14.6338 10.2678C15.5543 11.6265 15.0221 13.1022 14.6338 13.672C15.0773 14.483 15.7606 15.3945 16.2799 15.8473Z" fill="#3A3542"/>
<path fill-rule="evenodd" clip-rule="evenodd" d="M11.7062 8.90394V13.7755L11.7061 13.7777C11.6779 14.3946 11.7936 15.6948 12.2336 16.8492C12.6631 17.9763 13.3869 18.931 14.5564 19.0216V17.9194L16.1539 15.858C15.6336 15.3793 14.982 14.4999 14.5536 13.7166L14.5257 13.6656L14.5584 13.6176C14.9349 13.0652 15.4485 11.6341 14.5583 10.32L14.558 10.3196C13.701 9.04085 12.3427 8.84399 11.7062 8.90394ZM16.2943 15.9799C16.4314 16.0912 16.5625 16.1738 16.6788 16.2087C16.7484 16.2296 16.821 16.236 16.8886 16.2127C16.959 16.1884 17.0111 16.1362 17.0448 16.0658L17.0591 16.0361L16.8242 14.993L16.2684 15.7102C15.7803 15.2581 15.162 14.4297 14.7425 13.6754C15.1387 13.0561 15.6356 11.5796 14.7104 10.2137C13.7641 8.80202 12.2423 8.63654 11.6012 8.72741L11.5217 8.73868V13.7711C11.4927 14.4115 11.6116 15.7366 12.0615 16.917C12.5107 18.0958 13.3053 19.1657 14.6454 19.2145L14.7409 19.218V17.9844L16.2943 15.9799ZM16.4086 15.8325L16.7304 15.4172L16.8636 16.0091C16.8522 16.024 16.8404 16.0312 16.8292 16.035C16.8102 16.0416 16.7792 16.0432 16.7311 16.0288C16.6473 16.0036 16.5378 15.9376 16.4086 15.8325Z" fill="url(#paint12_linear_5158_281)"/>
<path d="M28.5701 9.75779C29.7512 8.01278 31.6521 7.78762 32.4457 7.9002C33.6822 7.9002 36.8011 8.51939 39.3664 11.015C39.6986 11.3339 40.6951 12.1971 41.8394 12.1971C41.0089 12.9288 39.6801 12.4785 39.6801 12.4785C39.6801 12.4785 39.5878 13.9796 41.987 17.0756L39.9385 16.1374C39.9385 16.1374 39.7724 18.7643 41.2672 21.6164L39.3664 19.6274C39.2372 21.2411 39.5509 26.2885 40.7505 27.602L40.9535 27.7896C40.8797 27.7333 40.8059 27.677 40.7505 27.602L38.8681 25.932C39.2741 28.7653 40.8243 35.3889 43.7402 39.2354C42.1715 38.7851 37.7423 37.0588 33.2577 30.454C32.5195 29.4783 31.0246 27.0015 29.8804 25.8194C29.216 25.0689 28.5517 24.506 28.5517 24.506V19.6274L25.8203 16.0999L26.3924 14.1672C26.7246 14.8615 27.6104 15.856 28.5332 14.1672C28.0718 13.4167 27.389 11.5216 28.5701 9.75779Z" fill="#3A3542"/>
<path fill-rule="evenodd" clip-rule="evenodd" d="M28.6642 9.79195C29.8195 8.06669 31.6798 7.86511 32.4507 7.97447L32.4571 7.97537H32.4635C33.6805 7.97537 36.7751 8.58802 39.3203 11.0641L39.3208 11.0645C39.4894 11.2264 39.8228 11.5273 40.2627 11.788C40.6368 12.0097 41.0921 12.2048 41.5914 12.258C41.2382 12.4714 40.8247 12.517 40.4705 12.4999C40.2589 12.4896 40.0722 12.4571 39.9383 12.4272C39.8715 12.4122 39.8181 12.3979 39.7816 12.3875C39.7634 12.3823 39.7495 12.378 39.7402 12.3751C39.7356 12.3737 39.7322 12.3725 39.7299 12.3718L39.7276 12.371L39.7271 12.3709L39.6133 12.3323L39.6058 12.454L39.6979 12.4599C39.6058 12.454 39.6058 12.4539 39.6058 12.454L39.6058 12.4544L39.6057 12.4549L39.6057 12.4564L39.6055 12.461C39.6053 12.4648 39.6052 12.47 39.6052 12.4768C39.6051 12.4902 39.6053 12.5096 39.6064 12.5348C39.6087 12.5853 39.6148 12.6594 39.6298 12.7572C39.6596 12.9528 39.7247 13.2433 39.8651 13.6299C40.1276 14.3528 40.6535 15.4119 41.7051 16.8168L39.8727 15.9776L39.8642 16.1128L39.9563 16.1188C39.8642 16.1128 39.8642 16.1128 39.8642 16.1128L39.8641 16.113L39.8641 16.1135L39.864 16.1152L39.8637 16.1214C39.8635 16.124 39.8634 16.1271 39.8632 16.1307C39.863 16.1348 39.8628 16.1396 39.8626 16.1451C39.8617 16.1659 39.8606 16.1964 39.8598 16.236C39.8581 16.3153 39.8575 16.4312 39.8614 16.579C39.8693 16.8744 39.8955 17.2974 39.9687 17.8093C40.0964 18.7017 40.3673 19.8656 40.9341 21.096L39.3078 19.3943L39.2921 19.6016C39.2269 20.4639 39.2829 22.277 39.5281 23.9919C39.6508 24.8496 39.8214 25.6867 40.0494 26.3701C40.1333 26.6217 40.226 26.8555 40.3285 27.0629L38.7568 25.6752L38.7946 25.9275C39.0076 27.349 39.5024 29.7183 40.3069 32.2143C41.0798 34.6125 42.1408 37.1347 43.5168 39.0457C41.7716 38.4889 37.5889 36.6229 33.3514 30.3821L33.3503 30.3805L33.3491 30.3789C33.1231 30.0743 32.8283 29.6331 32.4931 29.1313C32.2829 28.8167 32.0568 28.4783 31.8218 28.1349C31.2158 27.2494 30.5526 26.3339 29.9652 25.7362C29.6311 25.359 29.2975 25.0292 29.0474 24.7938C28.922 24.6758 28.8176 24.5814 28.7443 24.5163C28.7092 24.4852 28.6813 24.4608 28.6617 24.4438V19.5763L25.9407 16.0621L26.4698 14.3504C26.5411 14.4712 26.6261 14.5933 26.7231 14.7039C26.8733 14.8753 27.0572 15.0248 27.2676 15.094C27.4821 15.1644 27.7175 15.1489 27.9584 15.0015C28.1956 14.8564 28.4338 14.5863 28.6685 14.1566L28.6964 14.1056L28.6638 14.0577C28.1773 13.3433 27.513 11.4927 28.6639 9.79234L28.6642 9.79195ZM40.8415 27.5158L41.0502 27.7001L40.9386 27.849C40.8598 27.7957 40.7848 27.7292 40.7134 27.6512L39.0165 26.153C39.2465 27.5838 39.7274 29.8137 40.4822 32.1559C41.2838 34.6428 42.3918 37.2487 43.8313 39.1597L44 39.3837L43.7329 39.3071C42.1456 38.8514 37.6982 37.1133 33.2007 30.4903C32.9723 30.1826 32.6731 29.7347 32.3359 29.23C32.1261 28.916 31.9016 28.58 31.6703 28.242C31.0634 27.3552 30.4078 26.4516 29.8329 25.8671L29.8312 25.8654L29.8296 25.8636C29.4998 25.491 29.1698 25.1647 28.922 24.9315C28.7981 24.8149 28.695 24.7217 28.6229 24.6577C28.5869 24.6257 28.5586 24.601 28.5394 24.5844C28.5298 24.5761 28.5225 24.5698 28.5176 24.5656L28.5121 24.5609L28.5104 24.5595L28.4772 24.5313V19.6413L25.7354 16.1004L26.4286 13.858L26.5301 14.07C26.6102 14.2374 26.7234 14.4222 26.8609 14.579C26.9989 14.7365 27.1565 14.8603 27.3244 14.9154C27.4882 14.9692 27.6681 14.9601 27.8632 14.8407C28.0539 14.7241 28.2628 14.4995 28.4795 14.1155C27.9732 13.3335 27.3262 11.4381 28.5117 9.68626C29.7155 7.88872 31.6499 7.67394 32.4698 7.78774C33.73 7.78985 36.8668 8.41769 39.4477 10.9283C39.6114 11.0855 39.9331 11.3755 40.3557 11.6259C40.779 11.8768 41.2979 12.0846 41.8571 12.0846H42.1045L41.9176 12.2493C41.4764 12.6381 40.908 12.7089 40.4617 12.6873C40.2372 12.6764 40.0399 12.642 39.8986 12.6104C39.8596 12.6017 39.8248 12.5931 39.7948 12.5853C39.7981 12.6238 39.8034 12.6714 39.8121 12.7284C39.84 12.911 39.9018 13.1893 40.0382 13.5649C40.3111 14.3163 40.8824 15.457 42.0773 16.9989L41.9669 17.1425L40.0439 16.2618C40.0426 16.3373 40.0424 16.4425 40.0459 16.5739C40.0536 16.863 40.0793 17.2786 40.1514 17.7823C40.2956 18.7899 40.6252 20.1486 41.3663 21.5534L41.2188 21.6631L39.4636 19.8265C39.4217 20.7362 39.4856 22.3906 39.7108 23.9649C39.8326 24.817 40.0012 25.6416 40.2241 26.3098C40.4006 26.8387 40.607 27.2562 40.8415 27.5158Z" fill="url(#paint13_linear_5158_281)"/>
<path fill-rule="evenodd" clip-rule="evenodd" d="M37.6722 11.2285C35.8315 9.35875 33.7163 8.79556 31.9328 8.90845L31.9213 8.72118C33.7546 8.60514 35.924 9.18577 37.8057 11.0989L37.8086 11.1019L37.8113 11.1051C38.51 11.9575 39.0976 12.8414 39.3083 14.4482C39.5181 16.0476 39.3538 18.359 38.5688 22.0678L38.5688 22.0679C37.6887 26.2065 38.199 31.8663 42.5234 38.5083L42.3695 38.6118C38.0201 31.9316 37.4969 26.2207 38.3884 22.0283C39.1721 18.3255 39.3309 16.0398 39.1254 14.4729C38.9211 12.9154 38.3565 12.0638 37.6722 11.2285Z" fill="url(#paint14_linear_5158_281)"/>
<path fill-rule="evenodd" clip-rule="evenodd" d="M37.1142 11.8805C34.9311 9.27157 31.8588 9.36994 29.8387 10.1858L29.7705 10.0114C31.8369 9.1769 35.0053 9.06821 37.257 11.7615L37.2591 11.7641L37.261 11.7667C37.6995 12.3738 38.2165 13.1392 38.4108 14.641C38.6044 16.1372 38.4772 18.3593 37.6455 21.8827L37.6455 21.8828C36.7296 25.7379 37.5523 32.0542 41.2324 37.9472L41.0766 38.0478C37.3747 32.1198 36.5364 25.7518 37.4661 21.8388C38.2953 18.3259 38.4172 16.1292 38.2279 14.6655C38.0395 13.2095 37.5427 12.4739 37.1142 11.8805Z" fill="url(#paint15_linear_5158_281)"/>
<path fill-rule="evenodd" clip-rule="evenodd" d="M36.4682 12.2533C34.8723 10.0906 32.1706 10.0814 30.2042 10.7348L30.1468 10.5564C32.1445 9.89261 34.9503 9.8828 36.6163 12.1414L36.6163 12.1413L36.6173 12.1427C37.2278 13.0021 37.5618 13.8227 37.5875 15.2403C37.6131 16.6493 37.3343 18.6521 36.7254 21.8786C36.0468 25.4778 36.4859 31.3274 39.8516 37.1054L39.6928 37.201C36.3038 31.3831 35.8571 25.4868 36.5442 21.8432L36.5442 21.8432C37.1534 18.615 37.4282 16.6305 37.403 15.2438C37.378 13.866 37.057 13.0823 36.4682 12.2533Z" fill="url(#paint16_linear_5158_281)"/>
<path fill-rule="evenodd" clip-rule="evenodd" d="M35.8209 12.7194C34.4014 10.6879 31.9257 10.7233 30.1149 11.3943L30.0517 11.218C31.8937 10.5355 34.4805 10.4761 35.9719 12.6116L35.9719 12.6116L35.973 12.6133C36.5116 13.4202 36.7551 14.233 36.7271 15.602C36.6993 16.9643 36.4024 18.8858 35.8583 21.9144C35.2527 25.31 35.4904 30.5415 38.4688 35.981L38.3075 36.0723C35.3064 30.5913 35.0642 25.3152 35.6767 21.8809L35.6767 21.8808C36.2215 18.8488 36.5151 16.9426 36.5426 15.5981C36.57 14.2611 36.3339 13.4883 35.8209 12.7194Z" fill="url(#paint17_linear_5158_281)"/>
<path fill-rule="evenodd" clip-rule="evenodd" d="M34.9899 13.1905C33.6161 11.4623 31.7441 11.3963 30.2969 11.9037L30.2368 11.7263C31.7347 11.2011 33.6999 11.2652 35.137 13.077L35.1405 13.0814L35.1435 13.0862C35.6154 13.8539 35.8406 14.5946 35.8195 15.8746C35.7986 17.1476 35.5341 18.961 35.0269 21.8773C34.4579 25.1618 34.6036 29.5326 36.9941 34.674L36.8273 34.7542C34.4195 29.5756 34.2699 25.1651 34.8451 21.8447L34.8451 21.8447C35.3529 18.9255 35.6144 17.127 35.635 15.8715C35.6555 14.6259 35.4387 13.9221 34.9899 13.1905Z" fill="url(#paint18_linear_5158_281)"/>
<path fill-rule="evenodd" clip-rule="evenodd" d="M34.1583 13.4721C33.0379 12.0663 31.3801 12.1116 30.1138 12.6054L30.0478 12.4302C31.3526 11.9214 33.113 11.8583 34.305 13.3582L34.3081 13.3621L34.3108 13.3664C34.7355 14.0381 34.9665 14.693 34.9875 15.7795C35.0085 16.8591 34.8223 18.3685 34.4164 20.7509L34.4164 20.7511C33.9563 23.4266 33.5903 28.6017 35.7012 33.2673L35.5335 33.3458C33.3998 28.6297 33.7719 23.4098 34.2346 20.7189C34.6407 18.3354 34.8236 16.8426 34.803 15.7832C34.7826 14.7329 34.5623 14.1124 34.1583 13.4721Z" fill="url(#paint19_linear_5158_281)"/>
<path fill-rule="evenodd" clip-rule="evenodd" d="M33.5105 13.9373C32.748 12.8012 31.4687 12.742 30.3844 13.0749L30.331 12.8953C31.4491 12.5521 32.8345 12.5961 33.6636 13.8325L33.6636 13.8324L33.6648 13.8343C33.8989 14.2012 34.0853 14.8019 34.1225 15.8121C34.1598 16.823 34.0479 18.2518 33.6781 20.2818C33.4762 21.4206 33.2691 23.3611 33.3082 25.4724C33.3473 27.5852 33.6328 29.8602 34.4102 31.6732L34.241 31.7482C33.4496 29.9024 33.163 27.599 33.1237 25.4759C33.0844 23.3515 33.2925 21.3987 33.4966 20.2483L33.4966 20.2478C33.8651 18.2251 33.9746 16.8112 33.9381 15.8191C33.9015 14.8272 33.7191 14.2647 33.5105 13.9373Z" fill="url(#paint20_linear_5158_281)"/>
<path fill-rule="evenodd" clip-rule="evenodd" d="M32.8647 14.4016C32.3579 13.5505 31.4805 13.4097 30.6522 13.5859C30.2384 13.6739 29.8429 13.8406 29.5245 14.0319C29.2032 14.225 28.971 14.4367 28.872 14.6087L28.7127 14.5139C28.8352 14.3012 29.099 14.0696 29.4306 13.8704C29.765 13.6695 30.1792 13.4948 30.6144 13.4023C31.4833 13.2174 32.4601 13.3577 33.0238 14.3064L33.0248 14.3081L33.0258 14.3099C33.3745 14.96 33.682 16.5085 32.9427 20.0037L32.9427 20.0038C32.6955 21.1675 32.5111 23.2945 32.5157 25.3314C32.518 26.3492 32.5675 27.3415 32.6792 28.1775C32.7915 29.0176 32.965 29.6854 33.2068 30.0653L33.0519 30.1673C32.7861 29.7497 32.609 29.0454 32.4964 28.2027C32.3832 27.3558 32.3335 26.3545 32.3312 25.3318C32.3265 23.2876 32.5112 21.146 32.7623 19.9642M32.7623 19.9641C33.4987 16.4829 33.1801 14.9912 32.8647 14.4016Z" fill="url(#paint21_linear_5158_281)"/>
<path fill-rule="evenodd" clip-rule="evenodd" d="M32.2177 14.9634C31.8138 14.2574 31.084 14.1644 30.3805 14.3426C30.0298 14.4315 29.6933 14.5868 29.4225 14.7597C29.1488 14.9344 28.953 15.1203 28.8719 15.2645L28.7117 15.1714C28.8152 14.9873 29.0415 14.7814 29.3243 14.6008C29.61 14.4184 29.9645 14.2547 30.3359 14.1606C31.076 13.9731 31.9144 14.0581 32.3781 14.8706L32.3789 14.872L32.3796 14.8734C32.6731 15.4304 32.943 16.8105 32.2034 19.9308L32.2033 19.9313C31.8735 21.2911 31.7353 23.0373 31.7146 24.5987C31.6939 26.1618 31.791 27.5268 31.9268 28.125L31.747 28.1672C31.6059 27.5457 31.5093 26.1618 31.5301 24.5961C31.5509 23.0287 31.6895 21.2663 32.0241 19.8866C32.7602 16.7805 32.4776 15.4583 32.2177 14.9634Z" fill="url(#paint22_linear_5158_281)"/>
<path fill-rule="evenodd" clip-rule="evenodd" d="M30.9462 14.9499C31.1961 15.0214 31.4175 15.1921 31.5681 15.5202L31.5692 15.5225L31.5692 15.5225C31.6612 15.7096 31.7532 16.1144 31.751 16.7608C31.7487 17.404 31.653 18.2783 31.3777 19.3982L31.3777 19.3983C30.6172 22.5099 30.8214 26.1815 30.914 27.1233L31.0976 27.1047C31.0057 26.1702 30.8039 22.524 31.5567 19.4436C31.835 18.3118 31.9332 17.4224 31.9355 16.7615C31.9378 16.105 31.8456 15.6658 31.7349 15.4398C31.5625 15.065 31.2997 14.8561 30.9962 14.7693C30.6966 14.6836 30.3661 14.7193 30.0566 14.8137C29.7462 14.9084 29.4493 15.0643 29.2121 15.2289C28.9781 15.3913 28.7904 15.5703 28.7105 15.7165L28.8719 15.8076C28.9304 15.7005 29.0888 15.5417 29.3161 15.3839C29.5403 15.2283 29.8202 15.0817 30.1096 14.9934C30.3998 14.9049 30.6922 14.8773 30.9462 14.9499Z" fill="url(#paint23_linear_5158_281)"/>
<path fill-rule="evenodd" clip-rule="evenodd" d="M30.4494 15.515C30.6501 15.5496 30.8193 15.662 30.9213 15.8943L30.9221 15.8962L30.923 15.8981C31.0563 16.1692 31.246 17.081 30.8236 18.836L30.8236 18.836C29.8978 22.6955 30.1009 25.39 30.1756 26.0923L30.3591 26.0722C30.2861 25.386 30.0833 22.7141 31.0029 18.8805C31.4287 17.1112 31.2507 16.1471 31.089 15.816C30.9602 15.5242 30.7376 15.3744 30.4803 15.33C30.2279 15.2864 29.9472 15.3445 29.6899 15.4528C29.4317 15.5615 29.1882 15.7244 29.0078 15.9022C28.8319 16.0757 28.6987 16.2808 28.6987 16.4753H28.8832C28.8832 16.3602 28.9691 16.2018 29.1363 16.0369C29.2991 15.8764 29.5228 15.7262 29.7605 15.6261C29.9992 15.5257 30.2433 15.4794 30.4494 15.515Z" fill="url(#paint24_linear_5158_281)"/>
<path d="M27.7201 15.8473L27.2232 15.2061L27.0386 16.0257C27.1379 16.2329 27.3973 16.1287 27.7201 15.8473L29.3518 17.9529V19.1217C31.9177 19.0282 32.4441 15.0308 32.3865 13.7743V8.82133C31.7681 8.73366 30.2867 8.89438 29.3662 10.2678C28.4457 11.6265 28.9779 13.1022 29.3662 13.672C28.9227 14.483 28.2394 15.3945 27.7201 15.8473Z" fill="#3A3542"/>
<path fill-rule="evenodd" clip-rule="evenodd" d="M32.2938 8.90394V13.7755L32.2939 13.7777C32.3221 14.3946 32.2064 15.6948 31.7664 16.8492C31.3369 17.9763 30.6131 18.931 29.4436 19.0216V17.9194L27.8461 15.858C28.3665 15.3793 29.018 14.4999 29.4464 13.7166L29.4743 13.6656L29.4416 13.6176C29.0651 13.0652 28.5515 11.6341 29.4417 10.32L29.442 10.3196C30.299 9.04085 31.6573 8.84399 32.2938 8.90394ZM27.7057 15.9799C27.5686 16.0912 27.4375 16.1738 27.3212 16.2087C27.2517 16.2296 27.179 16.236 27.1114 16.2127C27.041 16.1884 26.9889 16.1362 26.9552 16.0658L26.941 16.0361L27.1758 14.993L27.7316 15.7102C28.2197 15.2581 28.838 14.4297 29.2575 13.6754C28.8613 13.0561 28.3644 11.5796 29.2896 10.2137C30.2359 8.80202 31.7577 8.63654 32.3988 8.72741L32.4783 8.73868V13.7711C32.5073 14.4115 32.3884 15.7366 31.9385 16.917C31.4893 18.0958 30.6947 19.1657 29.3546 19.2145L29.2591 19.218V17.9844L27.7057 15.9799ZM27.5914 15.8325L27.2696 15.4172L27.1364 16.0091C27.1478 16.024 27.1596 16.0312 27.1708 16.035C27.1898 16.0416 27.2209 16.0432 27.2689 16.0288C27.3527 16.0036 27.4622 15.9376 27.5914 15.8325Z" fill="url(#paint25_linear_5158_281)"/>
<path d="M24.2342 13.0231C25.7106 13.8487 27.7592 14.8431 30.103 15.5374C30.103 15.6687 30.1214 15.8376 30.1214 16.044C30.1399 16.5694 30.1583 17.3387 30.1214 18.2769C30.0476 20.1532 29.7708 22.6863 28.9772 25.332C27.8883 28.8595 25.5999 31.8242 22.0196 33.8131C18.4208 31.8242 16.1324 28.8408 15.062 25.3132C14.2684 22.6676 13.9916 20.1532 13.9178 18.2769C13.8809 17.3387 13.8993 16.5694 13.9178 16.044C13.9178 15.8376 13.9363 15.6687 13.9363 15.5374C16.2801 14.8431 18.3101 13.8487 19.7865 13.0231C20.5616 12.5915 21.1707 12.1975 21.5951 11.916C21.7612 11.8034 21.8904 11.7284 21.9827 11.6533C22.0934 11.7284 22.2226 11.8222 22.3702 11.916C22.8501 12.1975 23.4591 12.5915 24.2342 13.0231Z" fill="#4E495E"/>
<path d="M22.0181 34.3384C20.8739 33.7379 19.8589 33.0249 18.973 32.2368C18.973 32.2368 18.9546 12.9479 18.973 12.9291C20.8555 11.9346 22.0181 11.0527 22.0181 11.0527C22.0181 11.0527 23.1808 11.9159 25.0632 12.9291V32.2368C24.1774 33.0249 23.1624 33.7379 22.0181 34.3384Z" fill="white"/>
<path fill-rule="evenodd" clip-rule="evenodd" d="M29.9994 28.8098C28.762 33.0967 26.1535 36.6831 22.0863 39.1032L21.9471 39.186L21.8075 39.1037C17.7392 36.7019 15.1309 33.0961 13.8936 28.8099C13.8435 28.6501 13.698 28.5769 13.5582 28.6213C13.4813 28.6457 13.4253 28.6983 13.397 28.7548C13.3695 28.8096 13.3705 28.8604 13.391 28.9023L13.4022 28.925L13.4092 28.9495C14.7001 33.4599 17.4787 37.2452 21.8423 39.7408L21.844 39.7417L21.965 39.812L22.088 39.7406C26.4332 37.2636 29.23 33.4782 30.5207 28.9683L30.5215 28.9656L30.5223 28.963C30.5662 28.8202 30.4933 28.6716 30.3349 28.6213C30.1951 28.5769 30.0496 28.6501 29.9994 28.8098ZM29.4704 28.644C29.6054 28.2047 30.0498 27.941 30.5 28.084C30.9312 28.221 31.1903 28.6712 31.0516 29.128C29.7216 33.7732 26.8347 37.6797 22.3598 40.231C22.3594 40.2312 22.3591 40.2314 22.3587 40.2316L21.965 40.4604L21.5709 40.2314C21.5706 40.2312 21.5703 40.2311 21.57 40.2309C17.0827 37.6643 14.2163 33.7649 12.8839 29.1286C12.6846 28.6835 12.9814 28.2148 13.393 28.084C13.8432 27.941 14.2877 28.2047 14.4227 28.644L14.4234 28.6463L14.4241 28.6487C15.609 32.7556 18.0856 36.208 21.946 38.5336C25.8077 36.1899 28.2842 32.7551 29.469 28.6487L29.4696 28.6463L29.4704 28.644Z" fill="#E8B85C"/>
<path d="M22.4055 19.1582C22.4239 19.2145 22.4608 19.2708 22.4793 19.3271C22.4977 19.4021 22.5346 19.4772 22.5531 19.571C22.5715 19.6648 22.59 19.7399 22.6085 19.8337C22.6454 20.0964 22.6638 20.3778 22.6454 20.6405C22.6454 20.7719 22.6269 20.9032 22.6085 21.0346C22.59 21.1847 22.5531 21.3535 22.5162 21.5037C22.4793 21.635 22.4424 21.7663 22.4055 21.8789C22.3501 22.0478 22.2763 22.2167 22.2024 22.3855C22.1471 22.4981 22.0917 22.5919 22.0363 22.7045C21.9625 22.8546 21.8887 23.0047 21.8333 23.1736C21.778 23.3237 21.7595 23.4926 21.7411 23.6615C21.7226 23.8679 21.7226 24.093 21.7226 24.2994C21.7226 24.412 21.7411 24.5246 21.7595 24.6372C21.778 24.7498 21.7964 24.8436 21.8149 24.9562C21.8333 25.0875 21.8703 25.2188 21.9072 25.3502C21.9256 25.4252 21.9441 25.4815 21.9441 25.5566C21.9256 25.5191 21.8887 25.5003 21.8703 25.4628C21.778 25.3314 21.6857 25.2001 21.6119 25.05C21.5565 24.9562 21.5196 24.8436 21.4827 24.7498C21.4458 24.6184 21.3904 24.5058 21.3535 24.3745C21.3166 24.2244 21.2797 24.0743 21.2797 23.9242C21.2797 23.7928 21.2612 23.6427 21.2797 23.5114C21.2797 23.4175 21.2981 23.3237 21.3166 23.2487C21.3351 23.1173 21.372 22.986 21.4089 22.8546C21.4458 22.7608 21.4827 22.667 21.5196 22.5732C21.6119 22.3668 21.7226 22.1604 21.8149 21.954C21.8887 21.8039 21.9441 21.6538 21.9994 21.5037C22.0548 21.3535 22.1102 21.1847 22.1655 21.0158C22.2024 20.9032 22.2394 20.7906 22.2578 20.6968C22.2947 20.5467 22.3316 20.3966 22.3501 20.2277C22.4055 19.9275 22.4239 19.6273 22.4239 19.3271C22.4055 19.252 22.4055 19.1957 22.4055 19.1582Z" fill="url(#paint26_linear_5158_281)"/>
<path d="M21.0224 23.6804C20.9855 23.6428 20.9486 23.5865 20.9117 23.549C20.8194 23.4177 20.7271 23.2863 20.6718 23.1362C20.6164 23.0049 20.561 22.8548 20.5241 22.7047C20.4872 22.517 20.4688 22.3106 20.4688 22.123C20.4872 21.9354 20.5241 21.7477 20.5979 21.5788C20.6533 21.4475 20.7087 21.3349 20.764 21.2223C20.8194 21.091 20.8932 20.9596 20.9486 20.8283C21.0039 20.7157 21.0409 20.5844 21.0962 20.4718C21.1331 20.3592 21.17 20.2466 21.207 20.134C21.2254 20.0402 21.2623 19.9652 21.2808 19.8714C21.2992 19.7588 21.3177 19.6462 21.3361 19.5336C21.3546 19.4586 21.3546 19.3835 21.3731 19.3084C21.3731 19.2522 21.3731 19.1959 21.3915 19.1208C21.3915 19.102 21.3915 19.0645 21.3915 19.0458C21.3915 19.027 21.3915 19.0082 21.3915 18.9707C21.41 19.027 21.4469 19.0645 21.4653 19.1208C21.4838 19.1771 21.5391 19.3272 21.5391 19.346C21.5945 19.5711 21.613 19.7963 21.613 20.0402C21.613 20.1528 21.5945 20.2654 21.5945 20.3592C21.5761 20.453 21.5576 20.5468 21.5391 20.6407C21.5022 20.7908 21.4653 20.9409 21.41 21.0722C21.3731 21.1848 21.3361 21.2786 21.2808 21.3724C21.2254 21.5038 21.1516 21.6351 21.0962 21.7665C21.0409 21.8978 21.004 22.0104 20.967 22.1605C20.9301 22.3857 20.9117 22.5921 20.9301 22.8172C20.9301 22.9674 20.9486 23.1175 20.967 23.2863C20.967 23.3989 21.0039 23.549 21.0224 23.6804Z" fill="url(#paint27_linear_5158_281)"/>
<path d="M22.1862 25.5008C22.1677 25.4633 22.1677 25.4445 22.1493 25.407C22.1308 25.3132 22.0939 25.2194 22.0939 25.1256C22.0755 24.9942 22.0755 24.8629 22.0939 24.7315C22.0939 24.6377 22.1124 24.5626 22.1124 24.4688C22.1124 24.4313 22.1308 24.375 22.1308 24.3375C22.1493 24.2624 22.1677 24.1874 22.1862 24.1123C22.2047 24.0185 22.2416 23.9434 22.26 23.8496C22.3154 23.6995 22.3708 23.5682 22.4446 23.4368C22.5184 23.2867 22.6107 23.1366 22.7029 23.0053C22.7952 22.8739 22.869 22.7613 22.9429 22.63C23.0167 22.4986 23.072 22.3298 23.109 22.1797C23.1274 22.1046 23.1459 22.0296 23.1643 21.9357C23.1828 21.8232 23.2012 21.7293 23.2012 21.6168C23.2012 21.3728 23.2012 21.1289 23.2012 20.885C23.2012 20.885 23.2012 20.885 23.2012 20.8662C23.2197 20.9037 23.2381 20.9225 23.2566 20.96C23.3489 21.1101 23.4227 21.279 23.4781 21.4479C23.515 21.5605 23.5334 21.6918 23.5519 21.8232C23.5703 21.9733 23.5703 22.1421 23.5519 22.2922C23.5519 22.3861 23.515 22.4799 23.4965 22.5737C23.4596 22.7238 23.4042 22.8739 23.312 23.024C23.2751 23.0991 23.1828 23.2117 23.072 23.3618C22.6845 24.0185 22.3338 24.7128 22.1862 25.5008Z" fill="url(#paint28_linear_5158_281)"/>
<path fill-rule="evenodd" clip-rule="evenodd" d="M21.9564 11.0732L22.2371 11.2635C22.2805 11.2929 22.3216 11.3215 22.3624 11.3499C22.4398 11.4037 22.5163 11.4569 22.6066 11.5145C22.7829 11.618 22.9674 11.7307 23.1656 11.8518C23.5352 12.0777 23.9525 12.3328 24.4543 12.6121L24.4551 12.6125C25.9124 13.4275 27.9289 14.4058 30.2305 15.0875L30.5628 15.186V15.5379C30.5628 15.5821 30.5657 15.6337 30.5699 15.7105C30.5704 15.719 30.5708 15.7279 30.5713 15.737C30.5759 15.8209 30.581 15.9225 30.5813 16.0359C30.5998 16.5671 30.6183 17.3463 30.5809 18.2961C30.506 20.2001 30.2252 22.775 29.417 25.4693L29.4164 25.4711L29.4159 25.4729C28.2913 29.1164 25.9242 32.1782 22.2393 34.2253L22.0187 34.3479L21.7977 34.2258C18.0931 32.1783 15.7255 29.0966 14.6196 25.452L14.6192 25.4506C13.8111 22.7565 13.5302 20.2005 13.4553 18.2961C13.4179 17.3463 13.4363 16.5671 13.4549 16.0359C13.4552 15.9224 13.4603 15.8209 13.4648 15.737C13.4653 15.7278 13.4658 15.719 13.4663 15.7105C13.4705 15.6337 13.4734 15.5821 13.4734 15.5379V15.186L13.8057 15.0875C16.1065 14.406 18.1043 13.4281 19.5627 12.6125L19.5634 12.6121C20.3228 12.1893 20.9202 11.803 21.3397 11.5249C21.428 11.4651 21.4922 11.4237 21.5425 11.3914C21.6092 11.3484 21.6515 11.3213 21.693 11.2875L21.9564 11.0732ZM21.9811 12.2202C21.9794 12.2213 21.9777 12.2225 21.976 12.2236C21.9309 12.2529 21.8876 12.281 21.8495 12.3068L21.8476 12.3081L21.8457 12.3094C21.4164 12.5941 20.7965 12.9952 20.0069 13.4348C18.5792 14.2332 16.6332 15.1915 14.3811 15.8919C14.379 15.9414 14.3777 15.9918 14.3777 16.0445V16.0529L14.3774 16.0612C14.3591 16.5806 14.341 17.3369 14.3773 18.2586C14.45 20.1068 14.7227 22.5792 15.5016 25.1762C16.5146 28.514 18.6525 31.3484 22.0175 33.2772C25.3656 31.349 27.504 28.532 28.5349 25.1939C29.3135 22.5975 29.5862 20.107 29.6589 18.2586C29.6951 17.3369 29.6771 16.5806 29.6588 16.0612L29.6585 16.0529V16.0445C29.6585 15.9918 29.6571 15.9414 29.6551 15.8919C27.4022 15.1918 25.4395 14.2337 24.0107 13.4348C23.4971 13.1488 23.041 12.8704 22.6601 12.6378C22.4658 12.5192 22.291 12.4125 22.1382 12.3228L22.1311 12.3187L22.1242 12.3143C22.0756 12.2834 22.0274 12.2515 21.9811 12.2202Z" fill="#E8B85C"/>
<defs>
<linearGradient id="paint0_linear_5158_281" x1="0.0101185" y1="23.5898" x2="18.2566" y2="23.5898" gradientUnits="userSpaceOnUse">
<stop stop-color="#F5E8A2"/>
<stop offset="1" stop-color="#8F4C21"/>
</linearGradient>
<linearGradient id="paint1_linear_5158_281" x1="1.46898" y1="23.6646" x2="15.8289" y2="23.6646" gradientUnits="userSpaceOnUse">
<stop stop-color="#F5E8A2"/>
<stop offset="1" stop-color="#8F4C21"/>
</linearGradient>
<linearGradient id="paint2_linear_5158_281" x1="2.75999" y1="23.7707" x2="16.1067" y2="23.7707" gradientUnits="userSpaceOnUse">
<stop stop-color="#F5E8A2"/>
<stop offset="1" stop-color="#8F4C21"/>
</linearGradient>
<linearGradient id="paint3_linear_5158_281" x1="4.14086" y1="23.6877" x2="16.107" y2="23.6877" gradientUnits="userSpaceOnUse">
<stop stop-color="#F5E8A2"/>
<stop offset="1" stop-color="#8F4C21"/>
</linearGradient>
<linearGradient id="paint4_linear_5158_281" x1="5.5237" y1="23.4366" x2="16.016" y2="23.4366" gradientUnits="userSpaceOnUse">
<stop stop-color="#F5E8A2"/>
<stop offset="1" stop-color="#8F4C21"/>
</linearGradient>
<linearGradient id="paint5_linear_5158_281" x1="6.99828" y1="23.1013" x2="15.8332" y2="23.1013" gradientUnits="userSpaceOnUse">
<stop stop-color="#F5E8A2"/>
<stop offset="1" stop-color="#8F4C21"/>
</linearGradient>
<linearGradient id="paint6_linear_5158_281" x1="8.29125" y1="22.728" x2="15.6505" y2="22.728" gradientUnits="userSpaceOnUse">
<stop stop-color="#F5E8A2"/>
<stop offset="1" stop-color="#8F4C21"/>
</linearGradient>
<linearGradient id="paint7_linear_5158_281" x1="9.58227" y1="22.2325" x2="15.4645" y2="22.2325" gradientUnits="userSpaceOnUse">
<stop stop-color="#F5E8A2"/>
<stop offset="1" stop-color="#8F4C21"/>
</linearGradient>
<linearGradient id="paint8_linear_5158_281" x1="10.5892" y1="21.7529" x2="15.2795" y2="21.7529" gradientUnits="userSpaceOnUse">
<stop stop-color="#F5E8A2"/>
<stop offset="1" stop-color="#8F4C21"/>
</linearGradient>
<linearGradient id="paint9_linear_5158_281" x1="11.3129" y1="21.1252" x2="15.2808" y2="21.1252" gradientUnits="userSpaceOnUse">
<stop stop-color="#F5E8A2"/>
<stop offset="1" stop-color="#8F4C21"/>
</linearGradient>
<linearGradient id="paint10_linear_5158_281" x1="12.0546" y1="20.9253" x2="15.2821" y2="20.9253" gradientUnits="userSpaceOnUse">
<stop stop-color="#F5E8A2"/>
<stop offset="1" stop-color="#8F4C21"/>
</linearGradient>
<linearGradient id="paint11_linear_5158_281" x1="12.7235" y1="20.7062" x2="15.2938" y2="20.7062" gradientUnits="userSpaceOnUse">
<stop stop-color="#F5E8A2"/>
<stop offset="1" stop-color="#8F4C21"/>
</linearGradient>
<linearGradient id="paint12_linear_5158_281" x1="2.63108" y1="21.0517" x2="16.851" y2="21.0517" gradientUnits="userSpaceOnUse">
<stop stop-color="#F5E8A2"/>
<stop offset="1" stop-color="#8F4C21"/>
</linearGradient>
<linearGradient id="paint13_linear_5158_281" x1="43.9899" y1="23.5898" x2="25.7434" y2="23.5898" gradientUnits="userSpaceOnUse">
<stop stop-color="#F5E8A2"/>
<stop offset="1" stop-color="#8F4C21"/>
</linearGradient>
<linearGradient id="paint14_linear_5158_281" x1="42.531" y1="23.6646" x2="28.1711" y2="23.6646" gradientUnits="userSpaceOnUse">
<stop stop-color="#F5E8A2"/>
<stop offset="1" stop-color="#8F4C21"/>
</linearGradient>
<linearGradient id="paint15_linear_5158_281" x1="41.24" y1="23.7707" x2="27.8933" y2="23.7707" gradientUnits="userSpaceOnUse">
<stop stop-color="#F5E8A2"/>
<stop offset="1" stop-color="#8F4C21"/>
</linearGradient>
<linearGradient id="paint16_linear_5158_281" x1="39.8591" y1="23.6877" x2="27.893" y2="23.6877" gradientUnits="userSpaceOnUse">
<stop stop-color="#F5E8A2"/>
<stop offset="1" stop-color="#8F4C21"/>
</linearGradient>
<linearGradient id="paint17_linear_5158_281" x1="38.4763" y1="23.4366" x2="27.984" y2="23.4366" gradientUnits="userSpaceOnUse">
<stop stop-color="#F5E8A2"/>
<stop offset="1" stop-color="#8F4C21"/>
</linearGradient>
<linearGradient id="paint18_linear_5158_281" x1="37.0017" y1="23.1013" x2="28.1668" y2="23.1013" gradientUnits="userSpaceOnUse">
<stop stop-color="#F5E8A2"/>
<stop offset="1" stop-color="#8F4C21"/>
</linearGradient>
<linearGradient id="paint19_linear_5158_281" x1="35.7087" y1="22.728" x2="28.3495" y2="22.728" gradientUnits="userSpaceOnUse">
<stop stop-color="#F5E8A2"/>
<stop offset="1" stop-color="#8F4C21"/>
</linearGradient>
<linearGradient id="paint20_linear_5158_281" x1="34.4177" y1="22.2325" x2="28.5355" y2="22.2325" gradientUnits="userSpaceOnUse">
<stop stop-color="#F5E8A2"/>
<stop offset="1" stop-color="#8F4C21"/>
</linearGradient>
<linearGradient id="paint21_linear_5158_281" x1="33.4108" y1="21.7529" x2="28.7205" y2="21.7529" gradientUnits="userSpaceOnUse">
<stop stop-color="#F5E8A2"/>
<stop offset="1" stop-color="#8F4C21"/>
</linearGradient>
<linearGradient id="paint22_linear_5158_281" x1="32.6871" y1="21.1252" x2="28.7192" y2="21.1252" gradientUnits="userSpaceOnUse">
<stop stop-color="#F5E8A2"/>
<stop offset="1" stop-color="#8F4C21"/>
</linearGradient>
<linearGradient id="paint23_linear_5158_281" x1="31.9454" y1="20.9253" x2="28.7179" y2="20.9253" gradientUnits="userSpaceOnUse">
<stop stop-color="#F5E8A2"/>
<stop offset="1" stop-color="#8F4C21"/>
</linearGradient>
<linearGradient id="paint24_linear_5158_281" x1="31.2765" y1="20.7071" x2="28.7062" y2="20.7071" gradientUnits="userSpaceOnUse">
<stop stop-color="#F5E8A2"/>
<stop offset="1" stop-color="#8F4C21"/>
</linearGradient>
<linearGradient id="paint25_linear_5158_281" x1="41.3689" y1="21.0517" x2="27.149" y2="21.0517" gradientUnits="userSpaceOnUse">
<stop stop-color="#F5E8A2"/>
<stop offset="1" stop-color="#8F4C21"/>
</linearGradient>
<linearGradient id="paint26_linear_5158_281" x1="21.2622" y1="22.338" x2="22.6472" y2="22.338" gradientUnits="userSpaceOnUse">
<stop stop-color="#91601D"/>
<stop offset="0.5274" stop-color="#FBDD7B"/>
<stop offset="1" stop-color="#91601D"/>
</linearGradient>
<linearGradient id="paint27_linear_5158_281" x1="20.457" y1="21.3202" x2="21.5908" y2="21.3202" gradientUnits="userSpaceOnUse">
<stop stop-color="#91601D"/>
<stop offset="0.5274" stop-color="#FBDD7B"/>
<stop offset="1" stop-color="#91601D"/>
</linearGradient>
<linearGradient id="paint28_linear_5158_281" x1="22.0972" y1="23.1885" x2="23.5957" y2="23.1885" gradientUnits="userSpaceOnUse">
<stop stop-color="#91601D"/>
<stop offset="0.5274" stop-color="#FBDD7B"/>
<stop offset="1" stop-color="#91601D"/>
</linearGradient>
</defs>
</svg>
