<svg width="257" height="60" viewBox="0 0 257 60" fill="none" xmlns="http://www.w3.org/2000/svg">
<path d="M88.1328 27.4491C88.3088 27.9068 88.5201 28.2237 88.7313 28.3997C88.9426 28.5406 89.3298 28.611 89.8932 28.611V29.3504H83.7317V28.611H84.7527C84.964 28.611 85.14 28.5406 85.2457 28.4349C85.3513 28.3293 85.4217 28.1885 85.4217 28.0124C85.4217 27.9068 85.3865 27.766 85.3513 27.6251L84.0134 23.7874H79.3658L78.0983 27.6956C78.0631 27.8364 78.0279 27.9772 78.0279 28.1181C78.0279 28.4349 78.2392 28.611 78.6265 28.611H79.7531V29.3504H75V28.611C75.5985 28.611 75.9858 28.5406 76.2323 28.3645C76.4435 28.1885 76.6548 27.8364 76.8308 27.3787L81.584 14.3516H83.5204L88.1328 27.4491ZM83.7317 23.048L81.6544 16.9922H81.6192L79.6123 23.048H83.7317Z" fill="url(#paint0_linear_5158_265)"/>
<path d="M91.125 28.5768C91.6883 28.5768 92.0756 28.5416 92.3221 28.4712C92.5685 28.4008 92.7094 28.2599 92.815 28.1191C92.8854 27.9431 92.9206 27.6614 92.9206 27.3093V16.3595C92.9206 15.9722 92.8854 15.6905 92.815 15.5145C92.7446 15.3384 92.5685 15.2328 92.3221 15.1624C92.0756 15.092 91.6883 15.0568 91.125 15.0568V14.3174H97.6034V15.0568C97.0048 15.0568 96.5471 15.092 96.3006 15.1624C96.0542 15.2328 95.9134 15.3384 95.8077 15.5145C95.7373 15.6905 95.7021 15.9722 95.7021 16.3595V26.746C95.7021 27.3093 95.7725 27.6966 95.9134 27.9431C96.0542 28.1543 96.3006 28.3303 96.5823 28.3656C96.8992 28.4008 97.4273 28.436 98.1667 28.436C99.0469 28.436 99.7159 28.3303 100.174 28.1543C100.666 27.9431 101.054 27.6262 101.3 27.2037C101.582 26.746 101.828 26.077 102.04 25.232H102.638L102.392 29.3866H91.125V28.5768Z" fill="url(#paint1_linear_5158_265)"/>
<path d="M104.645 28.5768C105.208 28.5768 105.595 28.5416 105.842 28.4712C106.088 28.4008 106.229 28.2599 106.335 28.1191C106.405 27.9431 106.44 27.6614 106.44 27.3093V16.3595C106.44 15.9722 106.405 15.6905 106.335 15.5145C106.264 15.3384 106.088 15.1976 105.842 15.1624C105.595 15.092 105.208 15.0568 104.645 15.0568V14.3174H111.334C112.989 14.3174 114.292 14.599 115.207 15.1272C116.122 15.6553 116.58 16.5355 116.58 17.803C116.58 18.7536 116.299 19.493 115.77 20.0916C115.242 20.6549 114.468 21.0422 113.482 21.2534V21.2887C114.714 21.4999 115.63 21.9576 116.263 22.6266C116.897 23.2955 117.214 24.211 117.214 25.3728C117.214 26.8164 116.721 27.8726 115.77 28.5064C114.785 29.1049 113.411 29.4218 111.581 29.4218H104.645V28.5768ZM110.489 20.9014C111.545 20.9014 112.355 20.6549 112.919 20.162C113.482 19.6691 113.764 18.9297 113.764 18.0143C113.764 17.1341 113.482 16.4299 112.954 15.9722C112.426 15.4793 111.616 15.2328 110.524 15.2328C110.031 15.2328 109.679 15.3032 109.503 15.444C109.327 15.5497 109.222 15.7961 109.222 16.1482V20.9366H110.489V20.9014ZM110.947 28.436C112.003 28.436 112.813 28.1543 113.341 27.6262C113.869 27.0981 114.151 26.3235 114.151 25.3024C114.151 24.1757 113.834 23.2955 113.2 22.697C112.566 22.0985 111.686 21.7464 110.56 21.7464H109.222V26.9572C109.222 27.5206 109.362 27.9078 109.609 28.1191C109.891 28.3303 110.313 28.436 110.947 28.436Z" fill="url(#paint2_linear_5158_265)"/>
<path d="M119.186 28.5768C119.749 28.5768 120.136 28.5416 120.383 28.4712C120.629 28.4008 120.77 28.2599 120.876 28.1191C120.946 27.9431 120.981 27.6614 120.981 27.3093V16.3595C120.981 15.9722 120.946 15.6905 120.876 15.5145C120.805 15.3384 120.629 15.1976 120.383 15.1624C120.136 15.092 119.749 15.0568 119.186 15.0568V14.3174H125.523V15.0568C124.96 15.0568 124.572 15.092 124.326 15.1624C124.08 15.2328 123.939 15.3384 123.833 15.5145C123.763 15.6905 123.727 15.9722 123.727 16.3595V27.3093C123.727 27.6966 123.763 27.9783 123.833 28.1543C123.903 28.3303 124.08 28.436 124.326 28.5064C124.572 28.5768 124.96 28.612 125.523 28.612V29.3514H119.186V28.5768Z" fill="url(#paint3_linear_5158_265)"/>
<path d="M130.313 16.8524H130.242V27.4149C130.242 27.8374 130.313 28.1543 130.489 28.3303C130.665 28.5064 130.982 28.612 131.369 28.612H132.425V29.3514H127.461V28.612H128.13C128.482 28.612 128.764 28.5064 128.94 28.3303C129.116 28.1191 129.221 27.8374 129.221 27.4149V16.3595C129.221 15.9722 129.186 15.6905 129.116 15.5145C129.045 15.3384 128.869 15.2328 128.623 15.1624C128.412 15.092 127.989 15.0568 127.426 15.0568V14.3174H131.827L139.185 25.5489H139.256V16.1482C139.256 15.4088 138.869 15.0568 138.094 15.0568H137.073V14.3174H142.002V15.0568H141.333C140.629 15.0568 140.277 15.4088 140.277 16.1482V29.457H138.552L130.313 16.8524Z" fill="url(#paint4_linear_5158_265)"/>
<path d="M150.768 29.5973C148.339 29.5973 146.543 28.8932 145.346 27.4848C144.149 26.0765 143.586 24.1752 143.586 21.7811C143.586 19.3517 144.184 17.4856 145.346 16.0773C146.543 14.7042 148.339 14 150.768 14C153.198 14 154.993 14.7042 156.191 16.0773C157.388 17.4504 157.951 19.3517 157.951 21.7811C157.951 24.2104 157.352 26.1117 156.191 27.4848C154.993 28.8932 153.198 29.5973 150.768 29.5973ZM150.768 28.6819C152.106 28.6819 153.127 28.0834 153.796 26.9215C154.501 25.7596 154.853 24.0344 154.853 21.7811C154.853 19.5629 154.501 17.8729 153.796 16.711C153.127 15.5492 152.106 14.9506 150.768 14.9506C149.431 14.9506 148.409 15.5492 147.705 16.711C147.036 17.8729 146.684 19.5629 146.684 21.7811C146.684 24.0344 147.036 25.7244 147.705 26.9215C148.409 28.0834 149.431 28.6819 150.768 28.6819Z" fill="url(#paint5_linear_5158_265)"/>
<path d="M165.238 28.5768H165.907C166.365 28.5768 166.647 28.5064 166.788 28.3656C166.928 28.1895 166.999 27.8726 166.999 27.3797V16.3595C166.999 15.9722 166.964 15.6905 166.893 15.5145C166.823 15.3384 166.647 15.2328 166.4 15.1624C166.189 15.092 165.766 15.0568 165.203 15.0568V14.3174H170.027L174.181 25.1968H174.252L178.406 14.3174H183.089V15.0568C182.526 15.0568 182.138 15.1272 181.892 15.1624C181.681 15.2328 181.505 15.3384 181.434 15.5145C181.364 15.6905 181.329 15.9722 181.329 16.3595V27.3093C181.329 27.6966 181.364 27.9783 181.434 28.1543C181.505 28.3303 181.681 28.436 181.927 28.5064C182.174 28.5768 182.561 28.612 183.124 28.612V29.3514H176.892V28.612C177.456 28.612 177.843 28.5768 178.089 28.5064C178.336 28.436 178.477 28.2951 178.547 28.1543C178.618 27.9783 178.653 27.6966 178.653 27.3445V16.3947H178.618L173.724 29.3866H173.019L168.09 16.3947H168.055V27.4149C168.055 27.8022 168.055 28.0487 168.09 28.2247C168.125 28.3656 168.231 28.4712 168.372 28.5416C168.548 28.612 168.794 28.6472 169.182 28.6472H170.238V29.3866H165.274V28.5768H165.238Z" fill="url(#paint6_linear_5158_265)"/>
<path d="M191.716 29.5973C189.286 29.5973 187.491 28.8932 186.294 27.4848C185.097 26.0765 184.533 24.1752 184.533 21.7811C184.533 19.3517 185.132 17.4856 186.294 16.0773C187.491 14.7042 189.286 14 191.716 14C194.145 14 195.941 14.7042 197.138 16.0773C198.335 17.4504 198.898 19.3517 198.898 21.7811C198.898 24.2104 198.3 26.1117 197.138 27.4848C195.941 28.8932 194.145 29.5973 191.716 29.5973ZM191.716 28.6819C193.054 28.6819 194.075 28.0834 194.744 26.9215C195.448 25.7596 195.8 24.0344 195.8 21.7811C195.8 19.5629 195.448 17.8729 194.744 16.711C194.075 15.5492 193.054 14.9506 191.716 14.9506C190.378 14.9506 189.357 15.5492 188.653 16.711C187.984 17.8729 187.632 19.5629 187.632 21.7811C187.632 24.0344 187.984 25.7244 188.653 26.9215C189.357 28.0834 190.378 28.6819 191.716 28.6819Z" fill="url(#paint7_linear_5158_265)"/>
<path d="M200.871 24.5625H201.434C202.244 27.3088 203.653 28.6467 205.589 28.6467C206.399 28.6467 207.068 28.4355 207.561 27.9778C208.054 27.52 208.3 26.8863 208.3 26.0765C208.3 25.3723 208.089 24.809 207.666 24.3161C207.244 23.8232 206.575 23.4007 205.695 23.0486L205.202 22.8373C203.899 22.3092 202.878 21.7107 202.139 21.0417C201.434 20.3727 201.082 19.4573 201.082 18.225C201.082 17.4152 201.258 16.7111 201.646 16.0773C202.033 15.4083 202.561 14.9154 203.3 14.5633C204.005 14.176 204.885 14 205.871 14C206.364 14 206.786 14.0352 207.138 14.1056C207.49 14.176 207.842 14.2817 208.23 14.4225C208.511 14.5281 208.758 14.5985 208.899 14.5985C209.004 14.5985 209.075 14.5633 209.145 14.4929C209.216 14.4225 209.251 14.3169 209.321 14.1408H209.779L209.99 18.2602H209.427C209.215 17.1688 208.793 16.3238 208.23 15.7252C207.666 15.1619 206.962 14.845 206.117 14.845C205.343 14.845 204.744 15.0562 204.286 15.514C203.829 15.9365 203.582 16.4998 203.582 17.1688C203.582 17.6969 203.723 18.1194 204.005 18.5067C204.286 18.8588 204.638 19.1756 205.061 19.4221C205.483 19.6334 205.976 19.8798 206.61 20.1615L207.279 20.4431C208.441 20.9361 209.356 21.4994 209.99 22.2036C210.659 22.8725 210.976 23.7879 210.976 24.9498C210.976 26.2525 210.553 27.3088 209.673 28.2242C208.828 29.1044 207.455 29.5621 205.624 29.5621C204.99 29.5621 204.498 29.5269 204.11 29.4213C203.723 29.3157 203.336 29.2101 202.984 29.0692C202.948 29.0692 202.843 29.034 202.702 28.9636C202.561 28.8932 202.42 28.858 202.315 28.858C202.174 28.858 202.033 28.8932 201.892 28.9988C201.787 29.0692 201.716 29.1748 201.681 29.2805H201.188L200.871 24.5625Z" fill="url(#paint8_linear_5158_265)"/>
<path d="M225.129 27.4491C225.305 27.9068 225.516 28.2237 225.727 28.3997C225.939 28.5406 226.326 28.611 226.889 28.611V29.3504H220.728V28.611H221.749C221.96 28.611 222.136 28.5406 222.242 28.4349C222.347 28.3293 222.418 28.1885 222.418 28.0124C222.418 27.9068 222.383 27.766 222.347 27.6251L221.009 23.7874H216.362L215.094 27.6956C215.059 27.8364 215.024 27.9772 215.024 28.1181C215.024 28.4349 215.235 28.611 215.623 28.611H216.749V29.3504H211.996V28.611C212.595 28.611 212.982 28.5406 213.228 28.3645C213.44 28.1885 213.651 27.8364 213.827 27.3787L218.58 14.3516H220.517L225.129 27.4491ZM220.763 23.048L218.686 16.9922H218.615L216.608 23.048H220.763Z" fill="url(#paint9_linear_5158_265)"/>
<path d="M228.121 28.5768C228.684 28.5768 229.072 28.5416 229.318 28.4712C229.565 28.4008 229.705 28.2599 229.811 28.1191C229.882 27.9431 229.917 27.6614 229.917 27.3093V16.3595C229.917 15.9722 229.882 15.6905 229.811 15.5145C229.741 15.3384 229.565 15.1976 229.318 15.1624C229.072 15.092 228.684 15.0568 228.121 15.0568V14.3174H234.459V15.0568C233.895 15.0568 233.508 15.092 233.262 15.1624C233.015 15.2328 232.874 15.3384 232.769 15.5145C232.698 15.6905 232.663 15.9722 232.663 16.3595V27.3093C232.663 27.6966 232.698 27.9783 232.769 28.1543C232.839 28.3303 233.015 28.436 233.262 28.5064C233.508 28.5768 233.895 28.612 234.459 28.612V29.3514H228.121V28.5768Z" fill="url(#paint10_linear_5158_265)"/>
<path d="M243.683 29.5973C241.218 29.5973 239.317 28.9284 238.05 27.6257C236.782 26.2877 236.148 24.4217 236.148 21.9923C236.148 19.4221 236.817 17.4504 238.12 16.0773C239.458 14.7042 241.324 14 243.753 14C244.317 14 244.845 14.0704 245.267 14.176C245.725 14.2817 246.183 14.4225 246.641 14.5985C246.993 14.7394 247.239 14.8098 247.38 14.8098C247.521 14.8098 247.662 14.7746 247.732 14.7394C247.802 14.669 247.873 14.5985 247.943 14.4929L248.049 14.2465H248.612L248.823 18.5419H248.26C248.049 17.5208 247.591 16.6758 246.887 15.9365C246.218 15.2323 245.197 14.8802 243.894 14.8802C242.662 14.8802 241.676 15.2675 240.972 16.0069C240.268 16.7463 239.81 17.6265 239.528 18.6475C239.282 19.6333 239.176 20.6544 239.176 21.6402C239.176 23.6471 239.528 25.3019 240.268 26.6398C241.007 27.9778 242.169 28.6115 243.789 28.6115C245.232 28.6115 246.253 28.2946 246.922 27.6609C247.591 27.0271 248.084 26.2525 248.401 25.3723L249 25.6892C248.859 26.2525 248.577 26.8159 248.19 27.4144C247.802 27.9778 247.204 28.5059 246.465 28.9284C245.76 29.3861 244.81 29.5973 243.683 29.5973Z" fill="url(#paint11_linear_5158_265)"/>
<path d="M19.5918 43.4649L25.4052 38.0234H34.2636L40.3538 43.4649C39.4864 45.4914 35.74 49.0002 29.9267 49.0002C23.6519 49.0002 20.4223 45.1348 19.5918 43.4649Z" fill="#FFEEC1"/>
<path d="M33.0642 12.3166C27.8968 10.4402 26.1066 18.0395 25.959 21.7922V22.449L30.2037 20.0097L34.0792 22.1675L34.5406 21.7922C33.2119 18.8651 33.6732 15.8817 34.0792 14.6621L33.0642 12.3166Z" fill="#FFEEC1"/>
<path d="M35.6482 12.5052C35.1314 11.9048 33.4889 12.0737 33.0645 12.3176L34.0795 14.663C33.9318 13.1619 35.2791 12.6741 35.6482 12.5052Z" fill="#E6A833"/>
<path fill-rule="evenodd" clip-rule="evenodd" d="M35.1114 12.0969C35.3535 12.1641 35.5726 12.273 35.7185 12.4425L35.8006 12.5379L35.6869 12.5899C35.663 12.6008 35.6356 12.6129 35.6052 12.6262C35.3938 12.7192 35.0396 12.8749 34.7324 13.1536C34.3856 13.4682 34.1018 13.9375 34.1722 14.6528L33.9959 14.6999L32.9473 12.2768L33.0199 12.235C33.1398 12.1661 33.3343 12.1076 33.559 12.0663C33.7863 12.0246 34.0532 11.9988 34.323 12C34.5925 12.0012 34.868 12.0293 35.1114 12.0969ZM33.1858 12.362L33.9882 14.2162C34.0449 13.6759 34.3064 13.2887 34.6095 13.0136C34.9158 12.7357 35.2666 12.5711 35.4836 12.4752C35.3749 12.3901 35.2314 12.3247 35.0627 12.2779C34.8395 12.2159 34.581 12.1888 34.3222 12.1877C34.0637 12.1865 33.8081 12.2112 33.5919 12.251C33.423 12.282 33.2833 12.3213 33.1858 12.362Z" fill="white"/>
<path d="M31.8657 14.1931C32.1205 14.1931 32.3271 13.983 32.3271 13.724C32.3271 13.4649 32.1205 13.2549 31.8657 13.2549C31.6109 13.2549 31.4043 13.4649 31.4043 13.724C31.4043 13.983 31.6109 14.1931 31.8657 14.1931Z" fill="#4E495E"/>
<path d="M23.4299 17.7578C22.2488 16.0128 20.3479 15.7876 19.5543 15.9002C18.3178 15.9002 15.1989 16.5194 12.6336 19.015C12.3014 19.3339 11.3049 20.1971 10.1606 20.1971C10.9911 20.9288 12.3199 20.4785 12.3199 20.4785C12.3199 20.4785 12.4122 21.9796 10.013 25.0756L12.0615 24.1374C12.0615 24.1374 12.2276 26.7643 10.7328 29.6164L12.6336 27.6274C12.7628 29.2411 12.4491 34.2885 11.2495 35.602L11.0465 35.7896C11.1203 35.7333 11.1941 35.677 11.2495 35.602L13.1319 33.932C12.7259 36.7653 11.1757 43.3889 8.25977 47.2354C9.82845 46.7851 14.2577 45.0588 18.7423 38.454C19.4805 37.4783 20.9754 35.0015 22.1196 33.8194C22.784 33.0689 23.4483 32.506 23.4483 32.506V27.6274L26.1797 24.0999L25.6076 22.1672C25.2754 22.8615 24.3896 23.856 23.4668 22.1672C23.9282 21.4167 24.611 19.5216 23.4299 17.7578Z" fill="#3A3542"/>
<path fill-rule="evenodd" clip-rule="evenodd" d="M23.3358 17.792C22.1805 16.0667 20.3202 15.8651 19.5493 15.9745L19.5429 15.9754H19.5365C18.3195 15.9754 15.2249 16.588 12.6797 19.0641L12.6792 19.0645C12.5106 19.2264 12.1772 19.5273 11.7373 19.788C11.3632 20.0097 10.9079 20.2048 10.4086 20.258C10.7618 20.4714 11.1753 20.517 11.5295 20.4999C11.7411 20.4896 11.9278 20.4571 12.0617 20.4272C12.1285 20.4122 12.1819 20.3979 12.2184 20.3875C12.2366 20.3823 12.2505 20.378 12.2598 20.3751C12.2644 20.3737 12.2678 20.3725 12.2701 20.3718L12.2724 20.371L12.2729 20.3709L12.3867 20.3323L12.3942 20.454L12.3021 20.4599C12.3942 20.454 12.3942 20.4539 12.3942 20.454L12.3942 20.4544L12.3943 20.4549L12.3943 20.4564L12.3945 20.461C12.3947 20.4648 12.3948 20.47 12.3948 20.4768C12.3949 20.4902 12.3947 20.5096 12.3936 20.5348C12.3913 20.5853 12.3852 20.6594 12.3702 20.7572C12.3404 20.9528 12.2753 21.2433 12.1349 21.6299C11.8724 22.3528 11.3465 23.4119 10.2949 24.8168L12.1273 23.9776L12.1358 24.1128L12.0437 24.1188C12.1358 24.1128 12.1358 24.1128 12.1358 24.1128L12.1359 24.113L12.1359 24.1135L12.136 24.1152L12.1363 24.1214C12.1365 24.124 12.1366 24.1271 12.1368 24.1307C12.137 24.1348 12.1372 24.1396 12.1374 24.1451C12.1383 24.1659 12.1394 24.1964 12.1402 24.236C12.1419 24.3153 12.1425 24.4312 12.1386 24.579C12.1307 24.8744 12.1045 25.2974 12.0313 25.8093C11.9036 26.7017 11.6327 27.8656 11.0659 29.096L12.6922 27.3943L12.7079 27.6016C12.7731 28.4639 12.7171 30.277 12.4719 31.9919C12.3492 32.8496 12.1786 33.6867 11.9506 34.3701C11.8667 34.6217 11.774 34.8555 11.6715 35.0629L13.2432 33.6752L13.2054 33.9275C12.9924 35.349 12.4976 37.7183 11.6931 40.2143C10.9202 42.6125 9.85923 45.1347 8.4832 47.0457C10.2284 46.4889 14.4111 44.6229 18.6486 38.3821L18.6497 38.3805L18.6509 38.3789C18.8769 38.0743 19.1717 37.6331 19.5069 37.1313C19.7171 36.8167 19.9432 36.4783 20.1782 36.1349C20.7842 35.2494 21.4474 34.3339 22.0348 33.7362C22.3689 33.359 22.7025 33.0292 22.9526 32.7938C23.078 32.6758 23.1824 32.5814 23.2557 32.5163C23.2908 32.4852 23.3187 32.4608 23.3383 32.4438V27.5763L26.0593 24.0621L25.5302 22.3504C25.4589 22.4712 25.3739 22.5933 25.2769 22.7039C25.1267 22.8753 24.9428 23.0248 24.7324 23.094C24.5179 23.1644 24.2825 23.1489 24.0416 23.0015C23.8044 22.8564 23.5662 22.5863 23.3315 22.1566L23.3036 22.1056L23.3362 22.0577C23.8227 21.3433 24.487 19.4927 23.3361 17.7923L23.3358 17.792ZM11.1585 35.5158L10.9498 35.7001L11.0614 35.849C11.1402 35.7957 11.2152 35.7292 11.2866 35.6512L12.9835 34.153C12.7535 35.5838 12.2726 37.8137 11.5178 40.1559C10.7162 42.6428 9.60821 45.2487 8.16873 47.1597L8 47.3837L8.26706 47.3071C9.85439 46.8514 14.3018 45.1133 18.7993 38.4903C19.0277 38.1826 19.3269 37.7348 19.6641 37.23C19.8739 36.916 20.0984 36.58 20.3297 36.242C20.9366 35.3552 21.5922 34.4516 22.1671 33.8671L22.1688 33.8654L22.1704 33.8636C22.5002 33.491 22.8302 33.1647 23.078 32.9315C23.2019 32.8149 23.305 32.7217 23.3771 32.6577C23.4131 32.6257 23.4414 32.601 23.4606 32.5844C23.4702 32.5761 23.4775 32.5698 23.4824 32.5656L23.4879 32.5609L23.4896 32.5595L23.5228 32.5313V27.6413L26.2646 24.1004L25.5714 21.858L25.4699 22.07C25.3898 22.2374 25.2766 22.4222 25.1391 22.579C25.0011 22.7365 24.8435 22.8603 24.6756 22.9154C24.5118 22.9692 24.3319 22.9601 24.1368 22.8407C23.9461 22.7241 23.7372 22.4995 23.5205 22.1155C24.0268 21.3335 24.6738 19.4381 23.4883 17.6863C22.2845 15.8887 20.3501 15.6739 19.5302 15.7877C18.27 15.7899 15.1332 16.4177 12.5523 18.9283C12.3886 19.0855 12.0669 19.3755 11.6443 19.6259C11.221 19.8768 10.7021 20.0846 10.1429 20.0846H9.8955L10.0824 20.2493C10.5236 20.6381 11.092 20.7089 11.5383 20.6873C11.7628 20.6764 11.9601 20.642 12.1014 20.6104C12.1404 20.6017 12.1752 20.5931 12.2052 20.5853C12.2019 20.6238 12.1966 20.6714 12.1879 20.7284C12.16 20.911 12.0982 21.1893 11.9618 21.5649C11.6889 22.3163 11.1176 23.457 9.92275 24.9989L10.0331 25.1425L11.9561 24.2618C11.9574 24.3373 11.9576 24.4425 11.9541 24.5739C11.9464 24.863 11.9207 25.2786 11.8486 25.7823C11.7044 26.7899 11.3748 28.1486 10.6337 29.5534L10.7812 29.6631L12.5364 27.8265C12.5783 28.7362 12.5144 30.3906 12.2892 31.9649C12.1674 32.817 11.9988 33.6416 11.7759 34.3098C11.5994 34.8387 11.393 35.2562 11.1585 35.5158Z" fill="url(#paint12_linear_5158_265)"/>
<path fill-rule="evenodd" clip-rule="evenodd" d="M14.3278 19.2285C16.1685 17.3587 18.2837 16.7956 20.0672 16.9085L20.0787 16.7212C18.2454 16.6051 16.076 17.1858 14.1943 19.0989L14.1914 19.1019L14.1887 19.1051C13.49 19.9575 12.9024 20.8414 12.6917 22.4482C12.4819 24.0476 12.6462 26.359 13.4312 30.0678L13.4312 30.0679C14.3113 34.2065 13.801 39.8663 9.47656 46.5083L9.63045 46.6118C13.9799 39.9316 14.5031 34.2207 13.6116 30.0283C12.8279 26.3255 12.6691 24.0398 12.8746 22.4729C13.0789 20.9154 13.6435 20.0638 14.3278 19.2285Z" fill="url(#paint13_linear_5158_265)"/>
<path fill-rule="evenodd" clip-rule="evenodd" d="M14.8858 19.8805C17.0689 17.2716 20.1412 17.3699 22.1613 18.1858L22.2295 18.0114C20.1631 17.1769 16.9947 17.0682 14.743 19.7615L14.7409 19.7641L14.739 19.7667C14.3005 20.3738 13.7835 21.1392 13.5892 22.641C13.3956 24.1372 13.5228 26.3593 14.3545 29.8827L14.3545 29.8828C15.2704 33.7379 14.4477 40.0542 10.7676 45.9472L10.9234 46.0478C14.6253 40.1198 15.4636 33.7518 14.5339 29.8388C13.7047 26.3259 13.5828 24.1292 13.7721 22.6655C13.9605 21.2095 14.4573 20.4739 14.8858 19.8805Z" fill="url(#paint14_linear_5158_265)"/>
<path fill-rule="evenodd" clip-rule="evenodd" d="M15.5318 20.2533C17.1277 18.0906 19.8294 18.0814 21.7958 18.7348L21.8532 18.5564C19.8555 17.8926 17.0497 17.8828 15.3837 20.1414L15.3837 20.1413L15.3827 20.1427C14.7722 21.0021 14.4382 21.8227 14.4125 23.2403C14.3869 24.6493 14.6657 26.6521 15.2746 29.8786C15.9532 33.4778 15.5141 39.3274 12.1484 45.1054L12.3072 45.201C15.6962 39.3831 16.1429 33.4868 15.4558 29.8432L15.4558 29.8432C14.8466 26.615 14.5718 24.6305 14.597 23.2438C14.622 21.866 14.943 21.0823 15.5318 20.2533Z" fill="url(#paint15_linear_5158_265)"/>
<path fill-rule="evenodd" clip-rule="evenodd" d="M16.1791 20.7194C17.5986 18.6879 20.0743 18.7233 21.8851 19.3943L21.9483 19.218C20.1063 18.5355 17.5195 18.4761 16.0281 20.6116L16.0281 20.6116L16.027 20.6133C15.4884 21.4202 15.2449 22.233 15.2729 23.602C15.3007 24.9643 15.5976 26.8858 16.1417 29.9144C16.7473 33.31 16.5096 38.5415 13.5312 43.981L13.6925 44.0723C16.6936 38.5913 16.9358 33.3152 16.3233 29.8809L16.3233 29.8808C15.7786 26.8488 15.4849 24.9426 15.4574 23.5981C15.43 22.2611 15.6661 21.4883 16.1791 20.7194Z" fill="url(#paint16_linear_5158_265)"/>
<path fill-rule="evenodd" clip-rule="evenodd" d="M17.0101 21.1905C18.3839 19.4623 20.2559 19.3963 21.703 19.9037L21.7632 19.7263C20.2653 19.2011 18.3001 19.2652 16.863 21.077L16.8595 21.0814L16.8565 21.0862C16.3846 21.8539 16.1594 22.5946 16.1805 23.8746C16.2014 25.1476 16.4659 26.961 16.9731 29.8773C17.5421 33.1618 17.3964 37.5326 15.0059 42.674L15.1727 42.7542C17.5805 37.5756 17.7301 33.1651 17.1549 29.8447L17.1548 29.8447C16.6471 26.9255 16.3856 25.127 16.365 23.8715C16.3445 22.6259 16.5613 21.9221 17.0101 21.1905Z" fill="url(#paint17_linear_5158_265)"/>
<path fill-rule="evenodd" clip-rule="evenodd" d="M17.8417 21.4721C18.9621 20.0663 20.6199 20.1116 21.8862 20.6054L21.9522 20.4302C20.6474 19.9214 18.887 19.8583 17.695 21.3582L17.6919 21.3621L17.6892 21.3664C17.2645 22.0381 17.0335 22.693 17.0125 23.7795C16.9915 24.8591 17.1777 26.3685 17.5836 28.7509L17.5836 28.7511C18.0437 31.4266 18.4097 36.6017 16.2988 41.2673L16.4665 41.3458C18.6002 36.6297 18.2281 31.4098 17.7654 28.7189C17.3593 26.3354 17.1764 24.8426 17.197 23.7832C17.2174 22.7329 17.4377 22.1124 17.8417 21.4721Z" fill="url(#paint18_linear_5158_265)"/>
<path fill-rule="evenodd" clip-rule="evenodd" d="M18.4895 21.9373C19.252 20.8012 20.5313 20.742 21.6156 21.0749L21.669 20.8953C20.5509 20.5521 19.1655 20.5961 18.3364 21.8325L18.3364 21.8324L18.3352 21.8343C18.1011 22.2012 17.9147 22.8019 17.8775 23.8121C17.8402 24.823 17.9521 26.2518 18.3219 28.2818C18.5238 29.4206 18.7309 31.3611 18.6918 33.4724C18.6527 35.5852 18.3672 37.8602 17.5898 39.6732L17.759 39.7482C18.5504 37.9024 18.837 35.599 18.8763 33.4759C18.9156 31.3515 18.7075 29.3987 18.5035 28.2483L18.5034 28.2478C18.1349 26.2251 18.0254 24.8112 18.0619 23.8191C18.0985 22.8272 18.2809 22.2647 18.4895 21.9373Z" fill="url(#paint19_linear_5158_265)"/>
<path fill-rule="evenodd" clip-rule="evenodd" d="M19.1353 22.4016C19.6421 21.5505 20.5195 21.4097 21.3478 21.5859C21.7616 21.6739 22.1571 21.8406 22.4755 22.0319C22.7968 22.225 23.029 22.4367 23.128 22.6087L23.2873 22.5139C23.1648 22.3012 22.901 22.0696 22.5694 21.8704C22.235 21.6695 21.8208 21.4948 21.3856 21.4023C20.5167 21.2174 19.5399 21.3577 18.9762 22.3064L18.9752 22.3081L18.9742 22.3099C18.6255 22.96 18.318 24.5085 19.0573 28.0037L19.0573 28.0038C19.3045 29.1675 19.4889 31.2945 19.4843 33.3314C19.482 34.3492 19.4325 35.3415 19.3208 36.1775C19.2085 37.0176 19.035 37.6854 18.7932 38.0653L18.9481 38.1673C19.2139 37.7497 19.391 37.0454 19.5036 36.2027C19.6168 35.3558 19.6665 34.3545 19.6689 33.3318C19.6735 31.2876 19.4888 29.146 19.2377 27.9642M19.2377 27.9641C18.5013 24.4829 18.8199 22.9912 19.1353 22.4016Z" fill="url(#paint20_linear_5158_265)"/>
<path fill-rule="evenodd" clip-rule="evenodd" d="M19.7823 22.9634C20.1862 22.2574 20.916 22.1644 21.6195 22.3426C21.9702 22.4315 22.3067 22.5868 22.5775 22.7597C22.8512 22.9344 23.047 23.1203 23.1281 23.2645L23.2883 23.1714C23.1848 22.9873 22.9585 22.7814 22.6756 22.6008C22.39 22.4184 22.0355 22.2547 21.6641 22.1606C20.924 21.9731 20.0856 22.0581 19.6219 22.8706L19.6211 22.872L19.6204 22.8734C19.3269 23.4304 19.057 24.8105 19.7966 27.9308L19.7967 27.9313C20.1265 29.2911 20.2647 31.0373 20.2854 32.5987C20.3061 34.1618 20.209 35.5268 20.0732 36.125L20.253 36.1672C20.3941 35.5457 20.4907 34.1618 20.4699 32.5961C20.4491 31.0287 20.3105 29.2663 19.9759 27.8866C19.2398 24.7805 19.5224 23.4583 19.7823 22.9634Z" fill="url(#paint21_linear_5158_265)"/>
<path fill-rule="evenodd" clip-rule="evenodd" d="M21.0538 22.9499C20.8039 23.0214 20.5825 23.1921 20.4319 23.5202L20.4308 23.5225L20.4308 23.5225C20.3388 23.7096 20.2468 24.1144 20.249 24.7608C20.2513 25.404 20.347 26.2783 20.6223 27.3982L20.6223 27.3983C21.3828 30.5099 21.1786 34.1815 21.086 35.1233L20.9024 35.1047C20.9943 34.1702 21.1961 30.524 20.4433 27.4436C20.165 26.3118 20.0668 25.4224 20.0645 24.7615C20.0622 24.105 20.1544 23.6658 20.2651 23.4398C20.4375 23.065 20.7003 22.8561 21.0038 22.7693C21.3034 22.6836 21.6339 22.7193 21.9434 22.8137C22.2538 22.9084 22.5507 23.0643 22.7879 23.2289C23.0219 23.3913 23.2096 23.5703 23.2895 23.7165L23.1281 23.8076C23.0696 23.7005 22.9112 23.5417 22.6839 23.3839C22.4597 23.2283 22.1798 23.0817 21.8904 22.9934C21.6002 22.9049 21.3078 22.8773 21.0538 22.9499Z" fill="url(#paint22_linear_5158_265)"/>
<path fill-rule="evenodd" clip-rule="evenodd" d="M21.5506 23.514C21.3499 23.5487 21.1807 23.661 21.0787 23.8934L21.0779 23.8952L21.077 23.8971C20.9437 24.1682 20.754 25.0801 21.1764 26.835L21.1764 26.8351C22.1022 30.6945 21.8991 33.389 21.8244 34.0914L21.6409 34.0712C21.7139 33.385 21.9167 30.7132 20.9971 26.8796C20.5713 25.1103 20.7493 24.1461 20.911 23.815C21.0398 23.5232 21.2624 23.3734 21.5197 23.329C21.7721 23.2854 22.0528 23.3435 22.3101 23.4518C22.5683 23.5605 22.8118 23.7234 22.9922 23.9012C23.1681 24.0747 23.3013 24.2798 23.3013 24.4743H23.1168C23.1168 24.3592 23.0309 24.2008 22.8637 24.0359C22.7009 23.8754 22.4772 23.7252 22.2395 23.6252C22.0008 23.5247 21.7567 23.4784 21.5506 23.514Z" fill="url(#paint23_linear_5158_265)"/>
<path d="M24.2799 23.8473L24.7768 23.2061L24.9614 24.0257C24.8621 24.2329 24.6027 24.1287 24.2799 23.8473L22.6482 25.9529V27.1217C20.0823 27.0282 19.5559 23.0308 19.6135 21.7743V16.8213C20.2319 16.7337 21.7133 16.8944 22.6338 18.2678C23.5543 19.6265 23.0221 21.1022 22.6338 21.672C23.0773 22.483 23.7606 23.3945 24.2799 23.8473Z" fill="#3A3542"/>
<path fill-rule="evenodd" clip-rule="evenodd" d="M19.7062 16.9039V21.7755L19.7061 21.7777C19.6779 22.3946 19.7936 23.6948 20.2336 24.8492C20.6631 25.9763 21.3869 26.931 22.5564 27.0216V25.9194L24.1539 23.858C23.6336 23.3793 22.982 22.4999 22.5536 21.7166L22.5257 21.6656L22.5584 21.6176C22.9349 21.0652 23.4485 19.6341 22.5583 18.32L22.558 18.3196C21.701 17.0408 20.3427 16.844 19.7062 16.9039ZM24.2943 23.9799C24.4314 24.0912 24.5625 24.1738 24.6788 24.2087C24.7484 24.2296 24.821 24.236 24.8886 24.2127C24.959 24.1884 25.0111 24.1362 25.0448 24.0658L25.0591 24.0361L24.8242 22.993L24.2684 23.7102C23.7803 23.2581 23.162 22.4297 22.7425 21.6754C23.1387 21.0561 23.6356 19.5796 22.7104 18.2137C21.7641 16.802 20.2423 16.6365 19.6012 16.7274L19.5217 16.7387V21.7711C19.4927 22.4115 19.6116 23.7366 20.0615 24.917C20.5107 26.0958 21.3053 27.1657 22.6454 27.2145L22.7409 27.218V25.9844L24.2943 23.9799ZM24.4086 23.8325L24.7304 23.4172L24.8636 24.0091C24.8522 24.024 24.8404 24.0312 24.8292 24.035C24.8102 24.0416 24.7792 24.0432 24.7311 24.0288C24.6473 24.0036 24.5378 23.9376 24.4086 23.8325Z" fill="url(#paint24_linear_5158_265)"/>
<path d="M36.5701 17.7578C37.7512 16.0128 39.6521 15.7876 40.4457 15.9002C41.6822 15.9002 44.8011 16.5194 47.3664 19.015C47.6986 19.3339 48.6951 20.1971 49.8394 20.1971C49.0089 20.9288 47.6801 20.4785 47.6801 20.4785C47.6801 20.4785 47.5878 21.9796 49.987 25.0756L47.9385 24.1374C47.9385 24.1374 47.7724 26.7643 49.2672 29.6164L47.3664 27.6274C47.2372 29.2411 47.5509 34.2885 48.7505 35.602L48.9535 35.7896C48.8797 35.7333 48.8059 35.677 48.7505 35.602L46.8681 33.932C47.2741 36.7653 48.8243 43.3889 51.7402 47.2354C50.1715 46.7851 45.7423 45.0588 41.2577 38.454C40.5195 37.4783 39.0246 35.0015 37.8804 33.8194C37.216 33.0689 36.5517 32.506 36.5517 32.506V27.6274L33.8203 24.0999L34.3924 22.1672C34.7246 22.8615 35.6104 23.856 36.5332 22.1672C36.0718 21.4167 35.389 19.5216 36.5701 17.7578Z" fill="#3A3542"/>
<path fill-rule="evenodd" clip-rule="evenodd" d="M36.6642 17.792C37.8195 16.0667 39.6798 15.8651 40.4507 15.9745L40.4571 15.9754H40.4635C41.6805 15.9754 44.7751 16.588 47.3203 19.0641L47.3208 19.0645C47.4894 19.2264 47.8228 19.5273 48.2627 19.788C48.6368 20.0097 49.0921 20.2048 49.5914 20.258C49.2382 20.4714 48.8247 20.517 48.4705 20.4999C48.2589 20.4896 48.0722 20.4571 47.9383 20.4272C47.8715 20.4122 47.8181 20.3979 47.7816 20.3875C47.7634 20.3823 47.7495 20.378 47.7402 20.3751C47.7356 20.3737 47.7322 20.3725 47.7299 20.3718L47.7276 20.371L47.7271 20.3709L47.6133 20.3323L47.6058 20.454L47.6979 20.4599C47.6058 20.454 47.6058 20.4539 47.6058 20.454L47.6058 20.4544L47.6057 20.4549L47.6057 20.4564L47.6055 20.461C47.6053 20.4648 47.6052 20.47 47.6052 20.4768C47.6051 20.4902 47.6053 20.5096 47.6064 20.5348C47.6087 20.5853 47.6148 20.6594 47.6298 20.7572C47.6596 20.9528 47.7247 21.2433 47.8651 21.6299C48.1276 22.3528 48.6535 23.4119 49.7051 24.8168L47.8727 23.9776L47.8642 24.1128L47.9563 24.1188C47.8642 24.1128 47.8642 24.1128 47.8642 24.1128L47.8641 24.113L47.8641 24.1135L47.864 24.1152L47.8637 24.1214C47.8635 24.124 47.8634 24.1271 47.8632 24.1307C47.863 24.1348 47.8628 24.1396 47.8626 24.1451C47.8617 24.1659 47.8606 24.1964 47.8598 24.236C47.8581 24.3153 47.8575 24.4312 47.8614 24.579C47.8693 24.8744 47.8955 25.2974 47.9687 25.8093C48.0964 26.7017 48.3673 27.8656 48.9341 29.096L47.3078 27.3943L47.2921 27.6016C47.2269 28.4639 47.2829 30.277 47.5281 31.9919C47.6508 32.8496 47.8214 33.6867 48.0494 34.3701C48.1333 34.6217 48.226 34.8555 48.3285 35.0629L46.7568 33.6752L46.7946 33.9275C47.0076 35.349 47.5024 37.7183 48.3069 40.2143C49.0798 42.6125 50.1408 45.1347 51.5168 47.0457C49.7716 46.4889 45.5889 44.6229 41.3514 38.3821L41.3503 38.3805L41.3491 38.3789C41.1231 38.0743 40.8283 37.6331 40.4931 37.1313C40.2829 36.8167 40.0568 36.4783 39.8218 36.1349C39.2158 35.2494 38.5526 34.3339 37.9652 33.7362C37.6311 33.359 37.2975 33.0292 37.0474 32.7938C36.922 32.6758 36.8176 32.5814 36.7443 32.5163C36.7092 32.4852 36.6813 32.4608 36.6617 32.4438V27.5763L33.9407 24.0621L34.4698 22.3504C34.5411 22.4712 34.6261 22.5933 34.7231 22.7039C34.8733 22.8753 35.0572 23.0248 35.2676 23.094C35.4821 23.1644 35.7175 23.1489 35.9584 23.0015C36.1956 22.8564 36.4338 22.5863 36.6685 22.1566L36.6964 22.1056L36.6638 22.0577C36.1773 21.3433 35.513 19.4927 36.6639 17.7923L36.6642 17.792ZM48.8415 35.5158L49.0502 35.7001L48.9386 35.849C48.8598 35.7957 48.7848 35.7292 48.7134 35.6512L47.0165 34.153C47.2465 35.5838 47.7274 37.8137 48.4822 40.1559C49.2838 42.6428 50.3918 45.2487 51.8313 47.1597L52 47.3837L51.7329 47.3071C50.1456 46.8514 45.6982 45.1133 41.2007 38.4903C40.9723 38.1826 40.6731 37.7347 40.3359 37.23C40.1261 36.916 39.9016 36.58 39.6703 36.242C39.0634 35.3552 38.4078 34.4516 37.8329 33.8671L37.8312 33.8654L37.8296 33.8636C37.4998 33.491 37.1698 33.1647 36.922 32.9315C36.7981 32.8149 36.695 32.7217 36.6229 32.6577C36.5869 32.6257 36.5586 32.601 36.5394 32.5844C36.5298 32.5761 36.5225 32.5698 36.5176 32.5656L36.5121 32.5609L36.5104 32.5595L36.4772 32.5313V27.6413L33.7354 24.1004L34.4286 21.858L34.5301 22.07C34.6102 22.2374 34.7234 22.4222 34.8609 22.579C34.9989 22.7365 35.1565 22.8603 35.3244 22.9154C35.4882 22.9692 35.6681 22.9601 35.8632 22.8407C36.0539 22.7241 36.2628 22.4995 36.4795 22.1155C35.9732 21.3335 35.3262 19.4381 36.5117 17.6863C37.7155 15.8887 39.6499 15.6739 40.4698 15.7877C41.73 15.7899 44.8668 16.4177 47.4477 18.9283C47.6114 19.0855 47.9331 19.3755 48.3557 19.6259C48.779 19.8768 49.2979 20.0846 49.8571 20.0846H50.1045L49.9176 20.2493C49.4764 20.6381 48.908 20.7089 48.4617 20.6873C48.2372 20.6764 48.0399 20.642 47.8986 20.6104C47.8596 20.6017 47.8248 20.5931 47.7948 20.5853C47.7981 20.6238 47.8034 20.6714 47.8121 20.7284C47.84 20.911 47.9018 21.1893 48.0382 21.5649C48.3111 22.3163 48.8824 23.457 50.0773 24.9989L49.9669 25.1425L48.0439 24.2618C48.0426 24.3373 48.0424 24.4425 48.0459 24.5739C48.0536 24.863 48.0793 25.2786 48.1514 25.7823C48.2956 26.7899 48.6252 28.1486 49.3663 29.5534L49.2188 29.6631L47.4636 27.8265C47.4217 28.7362 47.4856 30.3906 47.7108 31.9649C47.8326 32.817 48.0012 33.6416 48.2241 34.3098C48.4006 34.8387 48.607 35.2562 48.8415 35.5158Z" fill="url(#paint25_linear_5158_265)"/>
<path fill-rule="evenodd" clip-rule="evenodd" d="M45.6722 19.2285C43.8315 17.3587 41.7163 16.7956 39.9328 16.9085L39.9213 16.7212C41.7546 16.6051 43.924 17.1858 45.8057 19.0989L45.8086 19.1019L45.8113 19.1051C46.51 19.9575 47.0976 20.8414 47.3083 22.4482C47.5181 24.0476 47.3538 26.359 46.5688 30.0678L46.5688 30.0679C45.6887 34.2065 46.199 39.8663 50.5234 46.5083L50.3695 46.6118C46.0201 39.9316 45.4969 34.2207 46.3884 30.0283C47.1721 26.3255 47.3309 24.0398 47.1254 22.4729C46.9211 20.9154 46.3565 20.0638 45.6722 19.2285Z" fill="url(#paint26_linear_5158_265)"/>
<path fill-rule="evenodd" clip-rule="evenodd" d="M45.1142 19.8805C42.9311 17.2716 39.8588 17.3699 37.8387 18.1858L37.7705 18.0114C39.8369 17.1769 43.0053 17.0682 45.257 19.7615L45.2591 19.7641L45.261 19.7667C45.6995 20.3738 46.2165 21.1392 46.4108 22.641C46.6044 24.1372 46.4772 26.3593 45.6455 29.8827L45.6455 29.8828C44.7296 33.7379 45.5523 40.0542 49.2324 45.9472L49.0766 46.0478C45.3747 40.1198 44.5364 33.7518 45.4661 29.8388C46.2953 26.3259 46.4172 24.1292 46.2279 22.6655C46.0395 21.2095 45.5427 20.4739 45.1142 19.8805Z" fill="url(#paint27_linear_5158_265)"/>
<path fill-rule="evenodd" clip-rule="evenodd" d="M44.4682 20.2533C42.8723 18.0906 40.1706 18.0814 38.2042 18.7348L38.1468 18.5564C40.1445 17.8926 42.9503 17.8828 44.6163 20.1414L44.6163 20.1413L44.6173 20.1427C45.2278 21.0021 45.5618 21.8227 45.5875 23.2403C45.6131 24.6493 45.3343 26.6521 44.7254 29.8786C44.0468 33.4778 44.4859 39.3274 47.8516 45.1054L47.6928 45.201C44.3038 39.3831 43.8571 33.4868 44.5442 29.8432L44.5442 29.8432C45.1534 26.615 45.4282 24.6305 45.403 23.2438C45.378 21.866 45.057 21.0823 44.4682 20.2533Z" fill="url(#paint28_linear_5158_265)"/>
<path fill-rule="evenodd" clip-rule="evenodd" d="M43.8209 20.7194C42.4014 18.6879 39.9257 18.7233 38.1149 19.3943L38.0517 19.218C39.8937 18.5355 42.4805 18.4761 43.9719 20.6116L43.9719 20.6116L43.973 20.6133C44.5116 21.4202 44.7551 22.233 44.7271 23.602C44.6993 24.9643 44.4024 26.8858 43.8583 29.9144C43.2527 33.31 43.4904 38.5415 46.4688 43.981L46.3075 44.0723C43.3064 38.5913 43.0642 33.3152 43.6767 29.8809L43.6767 29.8808C44.2215 26.8488 44.5151 24.9426 44.5426 23.5981C44.57 22.2611 44.3339 21.4883 43.8209 20.7194Z" fill="url(#paint29_linear_5158_265)"/>
<path fill-rule="evenodd" clip-rule="evenodd" d="M42.9899 21.1905C41.6161 19.4623 39.7441 19.3963 38.2969 19.9037L38.2368 19.7263C39.7347 19.2011 41.6999 19.2652 43.137 21.077L43.1405 21.0814L43.1435 21.0862C43.6154 21.8539 43.8406 22.5946 43.8195 23.8746C43.7986 25.1476 43.5341 26.961 43.0269 29.8773C42.4579 33.1618 42.6036 37.5326 44.9941 42.674L44.8273 42.7542C42.4195 37.5756 42.2699 33.1651 42.8451 29.8447L42.8451 29.8447C43.3529 26.9255 43.6144 25.127 43.635 23.8715C43.6555 22.6259 43.4387 21.9221 42.9899 21.1905Z" fill="url(#paint30_linear_5158_265)"/>
<path fill-rule="evenodd" clip-rule="evenodd" d="M42.1583 21.4721C41.0379 20.0663 39.3801 20.1116 38.1138 20.6054L38.0478 20.4302C39.3526 19.9214 41.113 19.8583 42.305 21.3582L42.3081 21.3621L42.3108 21.3664C42.7355 22.0381 42.9665 22.693 42.9875 23.7795C43.0085 24.8591 42.8223 26.3685 42.4164 28.7509L42.4164 28.7511C41.9563 31.4266 41.5903 36.6017 43.7012 41.2673L43.5335 41.3458C41.3998 36.6297 41.7719 31.4098 42.2346 28.7189C42.6407 26.3354 42.8236 24.8426 42.803 23.7832C42.7826 22.7329 42.5623 22.1124 42.1583 21.4721Z" fill="url(#paint31_linear_5158_265)"/>
<path fill-rule="evenodd" clip-rule="evenodd" d="M41.5105 21.9373C40.748 20.8012 39.4687 20.742 38.3844 21.0749L38.331 20.8953C39.4491 20.5521 40.8345 20.5961 41.6636 21.8325L41.6636 21.8324L41.6648 21.8343C41.8989 22.2012 42.0853 22.8019 42.1225 23.8121C42.1598 24.823 42.0479 26.2518 41.6781 28.2818C41.4762 29.4206 41.2691 31.3611 41.3082 33.4724C41.3473 35.5852 41.6328 37.8602 42.4102 39.6732L42.241 39.7482C41.4496 37.9024 41.163 35.599 41.1237 33.4759C41.0844 31.3515 41.2925 29.3987 41.4966 28.2483L41.4966 28.2478C41.8651 26.2251 41.9746 24.8112 41.9381 23.8191C41.9015 22.8272 41.7191 22.2647 41.5105 21.9373Z" fill="url(#paint32_linear_5158_265)"/>
<path fill-rule="evenodd" clip-rule="evenodd" d="M40.8647 22.4016C40.3579 21.5505 39.4805 21.4097 38.6522 21.5859C38.2384 21.6739 37.8429 21.8406 37.5245 22.0319C37.2032 22.225 36.971 22.4367 36.872 22.6087L36.7127 22.5139C36.8352 22.3012 37.099 22.0696 37.4306 21.8704C37.765 21.6695 38.1792 21.4948 38.6144 21.4023C39.4833 21.2174 40.4601 21.3577 41.0238 22.3064L41.0248 22.3081L41.0258 22.3099C41.3745 22.96 41.682 24.5085 40.9427 28.0037L40.9427 28.0038C40.6955 29.1675 40.5111 31.2945 40.5157 33.3314C40.518 34.3492 40.5675 35.3415 40.6792 36.1775C40.7915 37.0176 40.965 37.6854 41.2068 38.0653L41.0519 38.1673C40.7861 37.7497 40.609 37.0454 40.4964 36.2027C40.3832 35.3558 40.3335 34.3545 40.3312 33.3318C40.3265 31.2876 40.5112 29.146 40.7623 27.9642M40.7623 27.9641C41.4987 24.4829 41.1801 22.9912 40.8647 22.4016Z" fill="url(#paint33_linear_5158_265)"/>
<path fill-rule="evenodd" clip-rule="evenodd" d="M40.2177 22.9634C39.8138 22.2574 39.084 22.1644 38.3805 22.3426C38.0298 22.4315 37.6933 22.5868 37.4225 22.7597C37.1488 22.9344 36.953 23.1203 36.8719 23.2645L36.7117 23.1714C36.8152 22.9873 37.0415 22.7814 37.3243 22.6008C37.61 22.4184 37.9645 22.2547 38.3359 22.1606C39.076 21.9731 39.9144 22.0581 40.3781 22.8706L40.3789 22.872L40.3796 22.8734C40.6731 23.4304 40.943 24.8105 40.2034 27.9308L40.2033 27.9313C39.8735 29.2911 39.7353 31.0373 39.7146 32.5987C39.6939 34.1618 39.791 35.5268 39.9268 36.125L39.747 36.1672C39.6059 35.5457 39.5093 34.1618 39.5301 32.5961C39.5509 31.0287 39.6895 29.2663 40.0241 27.8866C40.7602 24.7805 40.4776 23.4583 40.2177 22.9634Z" fill="url(#paint34_linear_5158_265)"/>
<path fill-rule="evenodd" clip-rule="evenodd" d="M38.9462 22.9499C39.1961 23.0214 39.4175 23.1921 39.5681 23.5202L39.5692 23.5225L39.5692 23.5225C39.6612 23.7096 39.7532 24.1144 39.751 24.7608C39.7487 25.404 39.653 26.2783 39.3777 27.3982L39.3777 27.3983C38.6172 30.5099 38.8214 34.1815 38.914 35.1233L39.0976 35.1047C39.0057 34.1702 38.8039 30.524 39.5567 27.4436C39.835 26.3118 39.9332 25.4224 39.9355 24.7615C39.9378 24.105 39.8456 23.6658 39.7349 23.4398C39.5625 23.065 39.2997 22.8561 38.9962 22.7693C38.6966 22.6836 38.3661 22.7193 38.0566 22.8137C37.7462 22.9084 37.4493 23.0643 37.2121 23.2289C36.9781 23.3913 36.7904 23.5703 36.7105 23.7165L36.8719 23.8076C36.9304 23.7005 37.0888 23.5417 37.3161 23.3839C37.5403 23.2283 37.8202 23.0817 38.1096 22.9934C38.3998 22.9049 38.6922 22.8773 38.9462 22.9499Z" fill="url(#paint35_linear_5158_265)"/>
<path fill-rule="evenodd" clip-rule="evenodd" d="M38.4494 23.515C38.6501 23.5496 38.8193 23.662 38.9213 23.8943L38.9221 23.8962L38.923 23.8981C39.0563 24.1692 39.246 25.081 38.8236 26.836L38.8236 26.836C37.8978 30.6955 38.1009 33.39 38.1756 34.0923L38.3591 34.0722C38.2861 33.386 38.0833 30.7141 39.0029 26.8805C39.4287 25.1112 39.2507 24.1471 39.089 23.816C38.9602 23.5242 38.7376 23.3744 38.4803 23.33C38.2279 23.2864 37.9472 23.3445 37.6899 23.4528C37.4317 23.5615 37.1882 23.7244 37.0078 23.9022C36.8319 24.0757 36.6987 24.2808 36.6987 24.4753H36.8832C36.8832 24.3602 36.9691 24.2018 37.1363 24.0369C37.2991 23.8764 37.5228 23.7262 37.7605 23.6261C37.9992 23.5257 38.2433 23.4794 38.4494 23.515Z" fill="url(#paint36_linear_5158_265)"/>
<path d="M35.7201 23.8473L35.2232 23.2061L35.0386 24.0257C35.1379 24.2329 35.3973 24.1287 35.7201 23.8473L37.3518 25.9529V27.1217C39.9177 27.0282 40.4441 23.0308 40.3865 21.7743V16.8213C39.7681 16.7337 38.2867 16.8944 37.3662 18.2678C36.4457 19.6265 36.9779 21.1022 37.3662 21.672C36.9227 22.483 36.2394 23.3945 35.7201 23.8473Z" fill="#3A3542"/>
<path fill-rule="evenodd" clip-rule="evenodd" d="M40.2938 16.9039V21.7755L40.2939 21.7777C40.3221 22.3946 40.2064 23.6948 39.7664 24.8492C39.3369 25.9763 38.6131 26.931 37.4436 27.0216V25.9194L35.8461 23.858C36.3665 23.3793 37.018 22.4999 37.4464 21.7166L37.4743 21.6656L37.4416 21.6176C37.0651 21.0652 36.5515 19.6341 37.4417 18.32L37.442 18.3196C38.299 17.0408 39.6573 16.844 40.2938 16.9039ZM35.7057 23.9799C35.5686 24.0912 35.4375 24.1738 35.3212 24.2087C35.2517 24.2296 35.179 24.236 35.1114 24.2127C35.041 24.1884 34.9889 24.1362 34.9552 24.0658L34.941 24.0361L35.1758 22.993L35.7316 23.7102C36.2197 23.2581 36.838 22.4297 37.2575 21.6754C36.8613 21.0561 36.3644 19.5796 37.2896 18.2137C38.2359 16.802 39.7577 16.6365 40.3988 16.7274L40.4783 16.7387V21.7711C40.5073 22.4115 40.3884 23.7366 39.9385 24.917C39.4893 26.0958 38.6947 27.1657 37.3546 27.2145L37.2591 27.218V25.9844L35.7057 23.9799ZM35.5914 23.8325L35.2696 23.4172L35.1364 24.0091C35.1478 24.024 35.1596 24.0312 35.1708 24.035C35.1898 24.0416 35.2209 24.0432 35.2689 24.0288C35.3527 24.0036 35.4622 23.9376 35.5914 23.8325Z" fill="url(#paint37_linear_5158_265)"/>
<path d="M32.2342 21.0231C33.7106 21.8487 35.7592 22.8431 38.103 23.5374C38.103 23.6687 38.1214 23.8376 38.1214 24.044C38.1399 24.5694 38.1583 25.3387 38.1214 26.2769C38.0476 28.1532 37.7708 30.6863 36.9772 33.332C35.8883 36.8595 33.5999 39.8242 30.0196 41.8131C26.4208 39.8242 24.1324 36.8408 23.062 33.3132C22.2684 30.6676 21.9916 28.1532 21.9178 26.2769C21.8809 25.3387 21.8993 24.5694 21.9178 24.044C21.9178 23.8376 21.9363 23.6687 21.9363 23.5374C24.2801 22.8431 26.3101 21.8487 27.7865 21.0231C28.5616 20.5915 29.1707 20.1975 29.5951 19.916C29.7612 19.8034 29.8904 19.7284 29.9827 19.6533C30.0934 19.7284 30.2226 19.8222 30.3702 19.916C30.8501 20.1975 31.4591 20.5915 32.2342 21.0231Z" fill="#4E495E"/>
<path d="M30.0181 42.3384C28.8739 41.7379 27.8589 41.0249 26.973 40.2368C26.973 40.2368 26.9546 20.9479 26.973 20.9291C28.8555 19.9346 30.0181 19.0527 30.0181 19.0527C30.0181 19.0527 31.1808 19.9159 33.0632 20.9291V40.2368C32.1774 41.0249 31.1624 41.7379 30.0181 42.3384Z" fill="white"/>
<path fill-rule="evenodd" clip-rule="evenodd" d="M37.9994 36.8098C36.762 41.0967 34.1535 44.6831 30.0863 47.1032L29.9471 47.186L29.8075 47.1037C25.7392 44.7019 23.1309 41.0961 21.8936 36.8099C21.8435 36.6501 21.698 36.5769 21.5582 36.6213C21.4813 36.6457 21.4253 36.6983 21.397 36.7548C21.3695 36.8096 21.3705 36.8604 21.391 36.9023L21.4022 36.925L21.4092 36.9495C22.7001 41.4599 25.4787 45.2452 29.8423 47.7408L29.844 47.7417L29.965 47.812L30.088 47.7406C34.4332 45.2636 37.23 41.4782 38.5207 36.9683L38.5215 36.9656L38.5223 36.963C38.5662 36.8202 38.4933 36.6716 38.3349 36.6213C38.1951 36.5769 38.0496 36.6501 37.9994 36.8098ZM37.4704 36.644C37.6054 36.2047 38.0498 35.941 38.5 36.084C38.9312 36.221 39.1903 36.6712 39.0516 37.128C37.7216 41.7732 34.8347 45.6797 30.3598 48.231C30.3594 48.2312 30.3591 48.2314 30.3587 48.2316L29.965 48.4604L29.5709 48.2314C29.5706 48.2312 29.5703 48.2311 29.57 48.2309C25.0827 45.6643 22.2163 41.7649 20.8839 37.1286C20.6846 36.6835 20.9814 36.2148 21.393 36.084C21.8432 35.941 22.2877 36.2047 22.4227 36.644L22.4234 36.6463L22.4241 36.6487C23.609 40.7556 26.0856 44.208 29.946 46.5336C33.8077 44.1899 36.2842 40.7551 37.469 36.6487L37.4696 36.6463L37.4704 36.644Z" fill="#E8B85C"/>
<path d="M30.4055 27.1582C30.4239 27.2145 30.4608 27.2708 30.4793 27.3271C30.4977 27.4021 30.5346 27.4772 30.5531 27.571C30.5715 27.6648 30.59 27.7399 30.6085 27.8337C30.6454 28.0964 30.6638 28.3778 30.6454 28.6405C30.6454 28.7719 30.6269 28.9032 30.6085 29.0346C30.59 29.1847 30.5531 29.3535 30.5162 29.5037C30.4793 29.635 30.4424 29.7663 30.4055 29.8789C30.3501 30.0478 30.2763 30.2167 30.2024 30.3855C30.1471 30.4981 30.0917 30.5919 30.0363 30.7045C29.9625 30.8546 29.8887 31.0047 29.8333 31.1736C29.778 31.3237 29.7595 31.4926 29.7411 31.6615C29.7226 31.8679 29.7226 32.093 29.7226 32.2994C29.7226 32.412 29.7411 32.5246 29.7595 32.6372C29.778 32.7498 29.7964 32.8436 29.8149 32.9562C29.8333 33.0875 29.8703 33.2188 29.9072 33.3502C29.9256 33.4252 29.9441 33.4815 29.9441 33.5566C29.9256 33.5191 29.8887 33.5003 29.8703 33.4628C29.778 33.3314 29.6857 33.2001 29.6119 33.05C29.5565 32.9562 29.5196 32.8436 29.4827 32.7498C29.4458 32.6184 29.3904 32.5058 29.3535 32.3745C29.3166 32.2244 29.2797 32.0743 29.2797 31.9242C29.2797 31.7928 29.2612 31.6427 29.2797 31.5114C29.2797 31.4175 29.2981 31.3237 29.3166 31.2487C29.3351 31.1173 29.372 30.986 29.4089 30.8546C29.4458 30.7608 29.4827 30.667 29.5196 30.5732C29.6119 30.3668 29.7226 30.1604 29.8149 29.954C29.8887 29.8039 29.9441 29.6538 29.9994 29.5037C30.0548 29.3535 30.1102 29.1847 30.1655 29.0158C30.2024 28.9032 30.2394 28.7906 30.2578 28.6968C30.2947 28.5467 30.3316 28.3966 30.3501 28.2277C30.4055 27.9275 30.4239 27.6273 30.4239 27.3271C30.4055 27.252 30.4055 27.1957 30.4055 27.1582Z" fill="url(#paint38_linear_5158_265)"/>
<path d="M29.0224 31.6804C28.9855 31.6428 28.9486 31.5865 28.9117 31.549C28.8194 31.4177 28.7271 31.2863 28.6718 31.1362C28.6164 31.0049 28.561 30.8548 28.5241 30.7047C28.4872 30.517 28.4688 30.3106 28.4688 30.123C28.4872 29.9354 28.5241 29.7477 28.5979 29.5788C28.6533 29.4475 28.7087 29.3349 28.764 29.2223C28.8194 29.091 28.8932 28.9596 28.9486 28.8283C29.0039 28.7157 29.0409 28.5844 29.0962 28.4718C29.1331 28.3592 29.17 28.2466 29.207 28.134C29.2254 28.0402 29.2623 27.9652 29.2808 27.8714C29.2992 27.7588 29.3177 27.6462 29.3361 27.5336C29.3546 27.4586 29.3546 27.3835 29.3731 27.3084C29.3731 27.2522 29.3731 27.1959 29.3915 27.1208C29.3915 27.102 29.3915 27.0645 29.3915 27.0458C29.3915 27.027 29.3915 27.0082 29.3915 26.9707C29.41 27.027 29.4469 27.0645 29.4653 27.1208C29.4838 27.1771 29.5391 27.3272 29.5391 27.346C29.5945 27.5711 29.613 27.7963 29.613 28.0402C29.613 28.1528 29.5945 28.2654 29.5945 28.3592C29.5761 28.453 29.5576 28.5468 29.5391 28.6407C29.5022 28.7908 29.4653 28.9409 29.41 29.0722C29.3731 29.1848 29.3361 29.2786 29.2808 29.3724C29.2254 29.5038 29.1516 29.6351 29.0962 29.7665C29.0409 29.8978 29.004 30.0104 28.967 30.1605C28.9301 30.3857 28.9117 30.5921 28.9301 30.8172C28.9301 30.9674 28.9486 31.1175 28.967 31.2863C28.967 31.3989 29.0039 31.549 29.0224 31.6804Z" fill="url(#paint39_linear_5158_265)"/>
<path d="M30.1862 33.5008C30.1677 33.4633 30.1677 33.4445 30.1493 33.407C30.1308 33.3132 30.0939 33.2194 30.0939 33.1256C30.0755 32.9942 30.0755 32.8629 30.0939 32.7315C30.0939 32.6377 30.1124 32.5626 30.1124 32.4688C30.1124 32.4313 30.1308 32.375 30.1308 32.3375C30.1493 32.2624 30.1677 32.1874 30.1862 32.1123C30.2047 32.0185 30.2416 31.9434 30.26 31.8496C30.3154 31.6995 30.3708 31.5682 30.4446 31.4368C30.5184 31.2867 30.6107 31.1366 30.7029 31.0053C30.7952 30.8739 30.869 30.7613 30.9429 30.63C31.0167 30.4986 31.072 30.3298 31.109 30.1797C31.1274 30.1046 31.1459 30.0296 31.1643 29.9357C31.1828 29.8232 31.2012 29.7293 31.2012 29.6168C31.2012 29.3728 31.2012 29.1289 31.2012 28.885C31.2012 28.885 31.2012 28.885 31.2012 28.8662C31.2197 28.9037 31.2381 28.9225 31.2566 28.96C31.3489 29.1101 31.4227 29.279 31.4781 29.4479C31.515 29.5605 31.5334 29.6918 31.5519 29.8232C31.5703 29.9733 31.5703 30.1421 31.5519 30.2922C31.5519 30.3861 31.515 30.4799 31.4965 30.5737C31.4596 30.7238 31.4042 30.8739 31.312 31.024C31.2751 31.0991 31.1828 31.2117 31.072 31.3618C30.6845 32.0185 30.3338 32.7128 30.1862 33.5008Z" fill="url(#paint40_linear_5158_265)"/>
<path fill-rule="evenodd" clip-rule="evenodd" d="M29.9564 19.0732L30.2371 19.2635C30.2805 19.2929 30.3216 19.3215 30.3624 19.3499C30.4398 19.4037 30.5163 19.4569 30.6066 19.5145C30.7829 19.618 30.9674 19.7307 31.1656 19.8518C31.5352 20.0777 31.9525 20.3328 32.4543 20.6121L32.4551 20.6125C33.9124 21.4275 35.9289 22.4058 38.2305 23.0875L38.5628 23.186V23.5379C38.5628 23.5821 38.5657 23.6337 38.5699 23.7105C38.5704 23.719 38.5708 23.7279 38.5713 23.737C38.5759 23.8209 38.581 23.9225 38.5813 24.0359C38.5998 24.5671 38.6183 25.3463 38.5809 26.2961C38.506 28.2001 38.2252 30.775 37.417 33.4693L37.4164 33.4711L37.4159 33.4729C36.2913 37.1164 33.9242 40.1782 30.2393 42.2253L30.0187 42.3479L29.7977 42.2258C26.0931 40.1783 23.7255 37.0966 22.6196 33.452L22.6192 33.4506C21.8111 30.7565 21.5302 28.2005 21.4553 26.2961C21.4179 25.3463 21.4363 24.5671 21.4549 24.0359C21.4552 23.9224 21.4603 23.8209 21.4648 23.737C21.4653 23.7278 21.4658 23.719 21.4663 23.7105C21.4705 23.6337 21.4734 23.5821 21.4734 23.5379V23.186L21.8057 23.0875C24.1065 22.406 26.1043 21.4281 27.5627 20.6125L27.5634 20.6121C28.3228 20.1893 28.9202 19.803 29.3397 19.5249C29.428 19.4651 29.4922 19.4237 29.5425 19.3914C29.6092 19.3484 29.6515 19.3213 29.693 19.2875L29.9564 19.0732ZM29.9811 20.2202C29.9794 20.2213 29.9777 20.2225 29.976 20.2236C29.9309 20.2529 29.8876 20.281 29.8495 20.3068L29.8476 20.3081L29.8457 20.3094C29.4164 20.5941 28.7965 20.9952 28.0069 21.4348C26.5792 22.2332 24.6332 23.1915 22.3811 23.8919C22.379 23.9414 22.3777 23.9918 22.3777 24.0445V24.0529L22.3774 24.0612C22.3591 24.5806 22.341 25.3369 22.3773 26.2586C22.45 28.1068 22.7227 30.5792 23.5016 33.1762C24.5146 36.514 26.6525 39.3484 30.0175 41.2772C33.3656 39.349 35.504 36.532 36.5349 33.1939C37.3135 30.5975 37.5862 28.107 37.6589 26.2586C37.6951 25.3369 37.6771 24.5806 37.6588 24.0612L37.6585 24.0529V24.0445C37.6585 23.9918 37.6571 23.9414 37.6551 23.8919C35.4022 23.1918 33.4395 22.2337 32.0107 21.4348C31.4971 21.1488 31.041 20.8704 30.6601 20.6378C30.4658 20.5192 30.291 20.4125 30.1382 20.3228L30.1311 20.3187L30.1242 20.3143C30.0756 20.2834 30.0274 20.2515 29.9811 20.2202Z" fill="#E8B85C"/>
<path d="M103.493 50.5764C104.072 50.5764 104.507 50.504 104.76 50.3592C105.05 50.2144 105.195 50.0333 105.195 49.7799V48.73C105.195 48.5489 105.34 48.4765 105.593 48.4765C105.846 48.4765 105.991 48.5489 105.991 48.73V49.7799C105.991 50.2144 105.774 50.5402 105.376 50.7574C104.941 50.9747 104.326 51.0833 103.493 51.0833C102.66 51.0833 102.045 50.9747 101.61 50.7574C101.212 50.5402 100.995 50.2144 100.995 49.7799V43.082L100.09 42.5028V42.1769L101.321 40.6201L102.045 41.0546C102.262 41.1994 102.443 41.2718 102.588 41.2718H102.841C102.552 41.7787 102.335 42.0683 102.154 42.0683C101.972 42.0683 101.791 41.9959 101.61 41.8873L101.212 41.6339L100.705 42.2855L101.936 43.082V49.8161C101.936 50.0695 102.081 50.2868 102.335 50.3954C102.552 50.504 102.95 50.5764 103.493 50.5764Z" fill="black"/>
<path d="M107.8 47.9335H107.293C106.533 47.9335 105.99 47.8249 105.628 47.6076C105.266 47.3904 105.085 47.0646 105.085 46.6301V43.082L104.18 42.5028V42.1769L105.411 40.6201L106.135 41.0546C106.352 41.1994 106.533 41.2718 106.678 41.2718H106.931C106.642 41.7787 106.424 42.0683 106.243 42.0683C106.062 42.0683 105.881 41.9959 105.7 41.8873L105.302 41.6339L104.795 42.2855L106.026 43.082V46.6663C106.026 46.9197 106.135 47.137 106.352 47.2456C106.569 47.3904 106.895 47.4628 107.329 47.4628H107.836C108.271 47.4628 108.597 47.3904 108.814 47.2456C109.031 47.1008 109.14 46.9197 109.14 46.6663V43.1182L108.235 42.539V42.2131L109.466 40.6563L110.19 41.0908C110.407 41.2356 110.588 41.308 110.733 41.308H110.986C110.697 41.8149 110.479 42.1045 110.298 42.1045C110.117 42.1045 109.936 42.0321 109.755 41.9235L109.357 41.6701L108.85 42.3217L110.081 43.1182V46.7025C110.081 47.137 109.9 47.4628 109.538 47.68C109.104 47.8249 108.56 47.9335 107.8 47.9335Z" fill="black"/>
<path d="M114.099 47.2095L114.461 46.8837C114.57 46.7751 114.642 46.6664 114.679 46.5578C114.715 46.4492 114.751 46.3406 114.751 46.232C114.751 46.1596 114.715 46.0872 114.642 46.051C114.57 46.0148 114.461 45.9786 114.353 45.9786H114.099V47.2095ZM125.395 47.9336V42.3219L123.332 41.3806L122.245 41.8874V47.9336H121.34L119.784 46.9199L118.227 47.9336H117.322V42.3219L115.258 41.3806L114.172 41.8874V45.4717H114.425C114.715 45.4717 114.968 45.5441 115.113 45.6527C115.258 45.7975 115.33 45.9785 115.33 46.232C115.33 46.413 115.294 46.594 115.222 46.7388C115.149 46.8837 115.041 47.0647 114.896 47.1733L114.136 47.9336H113.23V41.7064L115.729 40.584L118.227 41.7064V47.2819L119.784 46.2682L121.34 47.2819V41.6702L123.838 40.5479L126.337 41.6702V47.8974H125.395V47.9336Z" fill="black"/>
<path d="M117.902 38.9551C117.902 38.4482 118.011 38.0862 118.264 37.8328C118.518 37.5793 118.88 37.4707 119.387 37.4707C119.676 37.4707 120.002 37.5431 120.364 37.7241C120.726 37.9052 121.088 38.1586 121.523 38.4844L122.102 38.9551V39.5706H118.807C118.518 39.5706 118.301 39.5344 118.12 39.4258C118.011 39.2809 117.902 39.1361 117.902 38.9551ZM119.423 38.3396C119.206 38.3396 119.061 38.3758 118.988 38.4844C118.88 38.593 118.844 38.7379 118.844 38.9189H121.197C120.944 38.7017 120.69 38.5568 120.4 38.4844C120.075 38.3758 119.749 38.3396 119.423 38.3396Z" fill="black"/>
<path d="M131.913 42.1771H131.732L130.429 41.3443L129.741 41.7064L130.356 42.1409C130.175 42.3581 130.031 42.4305 129.922 42.4305C129.813 42.4305 129.669 42.3943 129.56 42.2857L128.908 41.7788V41.4892L130.755 40.5479H130.972L132.094 41.2719L132.891 40.5479H133.108L134.158 41.1995C134.303 41.3081 134.484 41.3443 134.665 41.3443H134.954C134.737 41.8874 134.52 42.1409 134.303 42.1409C134.049 42.1409 133.832 42.0684 133.579 41.9236L132.746 41.4168L131.913 42.1771ZM130.393 47.2095L130.755 46.8837C130.863 46.7751 130.936 46.6664 130.972 46.5578C131.008 46.4492 131.044 46.3406 131.044 46.232C131.044 46.1596 131.008 46.0872 130.936 46.051C130.863 46.0148 130.755 45.9786 130.646 45.9786H130.393V47.2095ZM133.542 43.9873C133.542 43.7339 133.434 43.5166 133.253 43.408C133.036 43.2632 132.746 43.1908 132.384 43.1908H131.587C131.189 43.1908 130.899 43.2632 130.718 43.408C130.537 43.5528 130.429 43.7339 130.429 43.9873V45.4355H130.682C130.972 45.4355 131.225 45.5079 131.37 45.6165C131.515 45.7613 131.587 45.9423 131.587 46.1958C131.587 46.3768 131.551 46.5578 131.479 46.7027C131.406 46.8475 131.298 47.0285 131.153 47.1371L130.393 47.8974H129.487V43.9511C129.487 43.5166 129.669 43.1908 129.994 42.9736C130.356 42.7563 130.863 42.6477 131.551 42.6477H132.348C133.036 42.6477 133.579 42.7563 133.904 42.9736C134.266 43.1908 134.411 43.5166 134.411 43.9511V47.8974H133.506V43.9873H133.542Z" fill="black"/>
<path d="M145.745 47.9335V42.3579L143.247 41.4528L141.907 42.3217H141.726L139.156 41.3804L138.106 41.8511L138.54 42.1769C138.359 42.3942 138.214 42.4666 138.106 42.4666C137.997 42.4666 137.78 42.3941 137.526 42.2493L137.128 42.0321V41.7425L139.554 40.6201H139.807L142.233 41.5252L143.645 40.6201L146.722 41.7425V47.9697H145.745V47.9335ZM137.599 45.9784H137.345C137.273 45.9784 137.201 46.0146 137.128 46.0508C137.092 46.087 137.056 46.1594 137.056 46.2318C137.056 46.3043 137.092 46.4129 137.128 46.5215C137.164 46.6301 137.237 46.7387 137.345 46.8473L137.599 47.137V45.9784ZM141.654 43.9872C141.654 43.7337 141.545 43.5165 141.364 43.4079C141.147 43.2631 140.857 43.1907 140.495 43.1907H139.699C139.3 43.1907 139.011 43.2631 138.83 43.4079C138.649 43.5527 138.54 43.7337 138.54 43.9872V47.9335H137.599L136.983 47.1732C136.838 46.9921 136.73 46.8473 136.657 46.7025C136.585 46.5577 136.549 46.3767 136.549 46.2318C136.549 45.9784 136.621 45.7612 136.766 45.6526C136.911 45.5077 137.092 45.4715 137.345 45.4715H137.599V44.0234C137.599 43.5889 137.78 43.2631 138.106 43.0458C138.468 42.8286 138.975 42.72 139.662 42.72H140.459C141.147 42.72 141.69 42.8286 142.016 43.0458C142.378 43.2631 142.523 43.5889 142.523 44.0234V47.9697H141.617V43.9872H141.654Z" fill="black"/>
<path d="M150.703 47.2104L151.065 46.8846C151.174 46.776 151.246 46.6674 151.282 46.5587C151.318 46.4501 151.355 46.3415 151.355 46.2329C151.355 46.1605 151.318 46.0881 151.246 46.0519C151.174 46.0157 151.065 45.9795 150.956 45.9795H150.703V47.2104ZM154.794 47.9345H153.889V41.8883L153.273 41.3453L152.332 42.2866L151.391 41.3453L150.775 41.8883V45.4726H151.029C151.318 45.4726 151.572 45.545 151.717 45.6536C151.861 45.7984 151.934 45.9795 151.934 46.2329C151.934 46.4139 151.898 46.5949 151.825 46.7398C151.753 46.8846 151.644 47.0656 151.499 47.1742L150.739 47.9345H149.834V41.997L151.391 40.585L152.332 41.4901L153.273 40.585L154.83 41.997V47.9345H154.794Z" fill="black"/>
<path d="M158.234 39.0275C158.234 39.3895 158.307 39.5343 158.488 39.5343C158.669 39.5343 158.777 39.4981 158.886 39.3895C158.958 39.3171 159.031 39.1723 159.031 38.9913C159.031 38.8102 158.994 38.7016 158.886 38.593C158.813 38.5206 158.669 38.4482 158.488 38.4482H158.234C157.619 38.4482 157.293 38.2672 157.293 37.9413C157.293 37.6517 157.148 37.5069 156.895 37.5069C156.895 37.1448 157.076 37 157.401 37C157.691 37 157.872 37.0724 158.017 37.2534C158.162 37.3983 158.234 37.6517 158.234 37.9775H158.488C158.958 37.9775 159.32 38.0499 159.574 38.231C159.827 38.412 159.936 38.6654 159.936 39.0275C159.936 39.3895 159.827 39.6429 159.574 39.824C159.32 40.005 158.958 40.0774 158.488 40.0774C157.727 40.0774 157.329 39.8964 157.329 39.5705C157.329 39.2447 157.619 39.0275 158.234 39.0275ZM158.85 41.8876V45.4719C159.139 45.4719 159.393 45.5443 159.537 45.6891C159.682 45.8339 159.755 46.015 159.755 46.2684C159.755 46.4856 159.718 46.7029 159.61 46.9201C159.501 47.1373 159.393 47.3545 159.212 47.5356L158.813 47.97H157.908V40.6205H158.524L159.248 41.0911C159.393 41.1998 159.574 41.236 159.755 41.236H160.044C159.827 41.8514 159.646 42.1411 159.465 42.1411C159.284 42.1411 159.103 42.0687 158.922 41.96L158.85 41.8876ZM158.85 47.1373C158.994 46.9925 159.067 46.8477 159.139 46.7029C159.212 46.558 159.248 46.4132 159.248 46.2684C159.248 46.196 159.212 46.1236 159.139 46.0874C159.067 46.0512 158.958 46.015 158.85 46.015V47.1373Z" fill="black"/>
<path d="M166.055 42.5752C165.91 42.5752 165.838 42.5752 165.765 42.6114C165.693 42.6476 165.657 42.6838 165.657 42.72C165.657 42.8648 165.693 42.9372 165.765 43.0096C165.838 43.082 165.946 43.1182 166.055 43.1182V42.5752ZM162 41.8149C162 41.4166 162.217 41.0908 162.616 40.9098C163.05 40.6925 163.666 40.6201 164.498 40.6201C165.331 40.6201 165.946 40.7287 166.381 40.9098C166.815 41.127 166.996 41.4166 166.996 41.8149V43.082C166.996 43.2631 166.924 43.3717 166.779 43.4803C166.634 43.5527 166.381 43.6251 166.091 43.6251C165.802 43.6251 165.548 43.5527 165.403 43.4079C165.259 43.2631 165.186 43.0458 165.186 42.72C165.186 42.5028 165.259 42.3217 165.403 42.2131C165.548 42.1045 165.802 42.0683 166.091 42.0683V41.8511C166.091 41.6338 165.946 41.4528 165.693 41.3442C165.44 41.2356 165.041 41.1632 164.498 41.1632C163.991 41.1632 163.593 41.2356 163.304 41.3442C163.05 41.4528 162.905 41.6338 162.905 41.8511V43.082C162.905 43.4441 163.05 43.6613 163.304 43.7337L166.96 45.0009V46.7749C166.96 47.1732 166.815 47.499 166.562 47.68C166.308 47.8973 165.91 47.9697 165.403 47.9697C165.078 47.9697 164.824 47.8973 164.571 47.7524C164.317 47.6076 164.1 47.4266 163.883 47.137C163.774 46.9559 163.629 46.8473 163.448 46.7749C163.267 46.7025 163.086 46.6663 162.869 46.6663V47.9697H161.964V44.9285H162.869V46.1594C163.195 46.1594 163.448 46.1956 163.702 46.3043C163.955 46.4129 164.136 46.5939 164.281 46.8111C164.426 47.0284 164.607 47.1732 164.788 47.2818C164.969 47.3904 165.15 47.4266 165.367 47.4266C165.584 47.4266 165.729 47.3542 165.838 47.2456C165.946 47.137 165.983 46.9559 165.983 46.7387V45.1819L163.086 44.2044C162.688 44.0596 162.398 43.9147 162.217 43.6975C162.036 43.5165 161.928 43.2993 161.928 43.0458V41.8149H162Z" fill="black"/>
<path d="M174.202 43.9872C174.202 43.7337 174.094 43.5165 173.913 43.4079C173.696 43.2631 173.406 43.1907 173.044 43.1907H172.247C171.849 43.1907 171.559 43.2631 171.378 43.4079C171.197 43.5527 171.089 43.7337 171.089 43.9872V47.9335H170.184V43.9872C170.184 43.5527 170.365 43.2269 170.691 43.0096C171.053 42.7924 171.559 42.6838 172.247 42.6838H173.044C173.732 42.6838 174.275 42.7924 174.601 43.0096C174.963 43.2269 175.108 43.5527 175.108 43.9872V47.9335H174.202V43.9872ZM178.257 47.9335V42.3579L175.759 41.4528L174.42 42.3217H174.239L171.668 41.3804L170.618 41.8511L171.053 42.1769C170.872 42.3942 170.727 42.4666 170.618 42.4666C170.51 42.4666 170.292 42.3941 170.039 42.2493L169.641 42.0321V41.7425L172.066 40.6201H172.32L174.745 41.5252L176.157 40.6201L179.235 41.7425V47.9697H178.257V47.9335Z" fill="black"/>
<path d="M182.347 45.9792H182.202C182.129 45.9792 182.057 46.0154 181.984 46.0517C181.948 46.0879 181.912 46.1603 181.912 46.2327C181.912 46.3051 181.948 46.4137 182.021 46.5585C182.093 46.7033 182.165 46.8482 182.31 47.0292V45.9792H182.347ZM183.252 47.9343H182.347L181.876 47.2826C181.731 47.0654 181.622 46.8482 181.55 46.7033C181.478 46.5223 181.441 46.3775 181.441 46.2689C181.441 46.0154 181.514 45.7982 181.659 45.6896C181.803 45.5448 181.984 45.5086 182.238 45.5086H182.383V43.1553L181.478 42.576V42.2502L182.709 40.6934L183.433 41.1278C183.65 41.2726 183.831 41.345 183.976 41.345H184.229C183.94 41.8519 183.722 42.1415 183.541 42.1415C183.36 42.1415 183.179 42.0691 182.998 41.9605L182.6 41.7071L182.093 42.3588L183.324 43.1553V47.9343H183.252Z" fill="black"/>
<path d="M187.344 41.8873V45.4715C187.633 45.4715 187.887 45.544 188.032 45.6888C188.176 45.8336 188.249 46.0146 188.249 46.2681C188.249 46.4853 188.213 46.7025 188.104 46.9197C187.995 47.137 187.887 47.3542 187.706 47.5352L187.307 47.9697H186.402V40.6201H187.018L187.742 41.0908C187.887 41.1994 188.068 41.2356 188.249 41.2356H188.538C188.321 41.8511 188.14 42.1407 187.959 42.1407C187.778 42.1407 187.597 42.0683 187.416 41.9597L187.344 41.8873ZM187.344 47.137C187.488 46.9921 187.561 46.8473 187.633 46.7025C187.706 46.5577 187.742 46.4129 187.742 46.2681C187.742 46.1956 187.706 46.1232 187.633 46.087C187.561 46.0508 187.452 46.0146 187.344 46.0146V47.137Z" fill="black"/>
<path d="M192.989 50.5764C193.568 50.5764 194.003 50.504 194.256 50.3592C194.546 50.2144 194.691 50.0333 194.691 49.7799V48.73C194.691 48.5489 194.836 48.4765 195.089 48.4765C195.342 48.4765 195.487 48.5489 195.487 48.73V49.7799C195.487 50.2144 195.27 50.5402 194.872 50.7574C194.474 50.9747 193.822 51.0833 192.989 51.0833C192.156 51.0833 191.541 50.9747 191.107 50.7574C190.708 50.5402 190.491 50.2144 190.491 49.7799V43.082L189.586 42.5028V42.1769L190.817 40.6201L191.541 41.0546C191.758 41.1994 191.939 41.2718 192.084 41.2718H192.337C192.048 41.7787 191.831 42.0683 191.65 42.0683C191.469 42.0683 191.288 41.9959 191.107 41.8873L190.708 41.6339L190.201 42.2855L191.432 43.082V49.8161C191.432 50.0695 191.577 50.2868 191.831 50.3954C192.048 50.504 192.446 50.5764 192.989 50.5764Z" fill="black"/>
<path d="M198.638 43.9873C198.638 43.7339 198.529 43.5166 198.348 43.408C198.131 43.2632 197.842 43.1908 197.48 43.1908H196.683C196.285 43.1908 195.995 43.2632 195.814 43.408C195.633 43.5528 195.525 43.7339 195.525 43.9873V47.9336H194.619V43.9873C194.619 43.5528 194.8 43.227 195.126 43.0098C195.488 42.7925 195.995 42.6839 196.683 42.6839H197.48C198.167 42.6839 198.711 42.7925 199.036 43.0098C199.398 43.227 199.543 43.5528 199.543 43.9873V47.9336H198.638V43.9873ZM197.009 42.1771H196.828L195.525 41.3443L194.837 41.7064L195.452 42.1409C195.271 42.3581 195.126 42.4305 195.018 42.4305C194.909 42.4305 194.764 42.3943 194.656 42.2857L194.004 41.7788V41.4892L195.85 40.5479H196.068L197.19 41.2719L197.986 40.5479H198.204L199.254 41.1995C199.398 41.3081 199.579 41.3443 199.76 41.3443H200.05C199.833 41.8874 199.616 42.1409 199.398 42.1409C199.145 42.1409 198.928 42.0684 198.674 41.9236L197.842 41.4168L197.009 42.1771Z" fill="black"/>
<path d="M205.445 47.9335H204.938C204.178 47.9335 203.634 47.8249 203.272 47.6076C202.91 47.3904 202.729 47.0646 202.729 46.6301V43.082L201.824 42.5028V42.1769L203.055 40.6201L203.779 41.0546C203.996 41.1994 204.178 41.2718 204.322 41.2718H204.576C204.286 41.7787 204.069 42.0683 203.888 42.0683C203.707 42.0683 203.526 41.9959 203.345 41.8873L202.947 41.6339L202.44 42.2855L203.671 43.082V46.6663C203.671 46.9197 203.779 47.137 203.997 47.2456C204.214 47.3904 204.54 47.4628 204.974 47.4628H205.481C205.915 47.4628 206.241 47.3904 206.458 47.2456C206.676 47.1008 206.784 46.9197 206.784 46.6663V43.1182L205.879 42.539V42.2131L207.11 40.6563L207.834 41.0908C208.051 41.2356 208.232 41.308 208.377 41.308H208.631C208.341 41.8149 208.124 42.1045 207.943 42.1045C207.762 42.1045 207.581 42.0321 207.4 41.9235L207.001 41.6701L206.495 42.3217L207.726 43.1182V46.7025C207.726 47.137 207.545 47.4628 207.183 47.68C206.748 47.8249 206.169 47.9335 205.445 47.9335Z" fill="black"/>
<path d="M214.896 43.9873C214.896 43.7339 214.787 43.5166 214.606 43.408C214.389 43.2632 214.099 43.1908 213.737 43.1908H212.905C212.506 43.1908 212.217 43.2632 212.036 43.408C211.855 43.5528 211.746 43.7339 211.746 43.9873V47.9336H210.841V43.9873C210.841 43.5528 211.022 43.227 211.348 43.0098C211.71 42.7925 212.217 42.6839 212.905 42.6839H213.701C214.389 42.6839 214.932 42.7925 215.258 43.0098C215.62 43.227 215.765 43.5528 215.765 43.9873V47.9336H214.86V43.9873H214.896ZM213.267 42.1771H213.086L211.782 41.3443L211.094 41.7064L211.71 42.1409C211.529 42.3581 211.384 42.4305 211.275 42.4305C211.167 42.4305 211.022 42.3943 210.913 42.2857L210.262 41.7788V41.4892L212.108 40.5479H212.325L213.448 41.2719L214.244 40.5479H214.461L215.511 41.1995C215.656 41.3081 215.837 41.3443 216.018 41.3443H216.308C216.091 41.8874 215.873 42.1409 215.656 42.1409C215.403 42.1409 215.186 42.0684 214.932 41.9236L214.099 41.4168L213.267 42.1771Z" fill="black"/>
<path d="M210.551 50.5773C210.551 49.8894 210.696 49.3464 210.949 49.0205C211.202 48.6947 211.601 48.5137 212.144 48.5137C212.578 48.5137 212.904 48.6223 213.194 48.8757C213.483 49.1292 213.701 49.4912 213.845 49.9981C213.99 50.3601 214.135 50.6497 214.28 50.8308C214.425 51.0118 214.57 51.1204 214.714 51.1204C214.859 51.1204 215.004 50.9032 215.149 50.4687C215.294 50.0343 215.438 49.3826 215.583 48.5137H216.38C216.126 49.5636 215.873 50.3601 215.619 50.867C215.366 51.3738 215.076 51.6635 214.787 51.6635C214.388 51.6635 214.099 51.5549 213.809 51.3376C213.556 51.1204 213.375 50.8308 213.23 50.3963C213.085 49.9256 212.94 49.5998 212.759 49.3464C212.578 49.1291 212.361 48.9843 212.144 48.9843C211.89 48.9843 211.673 49.1291 211.565 49.3826C211.42 49.636 211.347 50.0343 211.347 50.5773C211.347 50.9394 211.42 51.0842 211.601 51.0842C211.782 51.0842 211.854 50.9032 211.854 50.5773C212.035 50.5773 212.144 50.6135 212.252 50.7221C212.325 50.7946 212.397 50.9394 212.397 51.1204C212.397 51.3014 212.325 51.41 212.18 51.5187C212.035 51.5911 211.854 51.6635 211.601 51.6635C211.239 51.6635 210.985 51.5911 210.804 51.41C210.659 51.1566 210.551 50.9032 210.551 50.5773Z" fill="black"/>
<path d="M211.346 38.9551C211.346 38.4482 211.454 38.0862 211.708 37.8328C211.961 37.5793 212.323 37.4707 212.83 37.4707C213.12 37.4707 213.446 37.5431 213.808 37.7241C214.17 37.9052 214.532 38.1586 214.966 38.4844L215.545 38.9551V39.5706H212.251C211.961 39.5706 211.744 39.5344 211.563 39.4258C211.418 39.2809 211.346 39.1361 211.346 38.9551ZM212.83 38.3396C212.613 38.3396 212.468 38.3758 212.396 38.4844C212.287 38.593 212.251 38.7379 212.251 38.9189H214.604C214.351 38.7017 214.097 38.5568 213.808 38.4844C213.518 38.3758 213.192 38.3396 212.83 38.3396Z" fill="black"/>
<path d="M223.004 42.5752C222.859 42.5752 222.787 42.5752 222.715 42.6114C222.642 42.6476 222.606 42.6838 222.606 42.72C222.606 42.8648 222.642 42.9372 222.715 43.0096C222.787 43.082 222.896 43.1182 223.004 43.1182V42.5752ZM218.949 41.8149C218.949 41.4166 219.167 41.0908 219.565 40.9098C219.999 40.6925 220.615 40.6201 221.447 40.6201C222.28 40.6201 222.896 40.7287 223.33 40.9098C223.765 41.127 223.946 41.4166 223.946 41.8149V43.082C223.946 43.2631 223.873 43.3717 223.728 43.4803C223.584 43.5527 223.33 43.6251 223.04 43.6251C222.751 43.6251 222.497 43.5527 222.353 43.4079C222.208 43.2631 222.135 43.0458 222.135 42.72C222.135 42.5028 222.208 42.3217 222.353 42.2131C222.497 42.1045 222.751 42.0683 223.04 42.0683V41.8511C223.04 41.6338 222.896 41.4528 222.642 41.3442C222.389 41.2356 221.991 41.1632 221.447 41.1632C220.941 41.1632 220.542 41.2356 220.253 41.3442C219.999 41.4528 219.854 41.6338 219.854 41.8511V43.082C219.854 43.4441 219.999 43.6613 220.253 43.7337L223.909 45.0009V46.7749C223.909 47.1732 223.765 47.499 223.511 47.68C223.258 47.8973 222.859 47.9697 222.353 47.9697C222.027 47.9697 221.773 47.8973 221.52 47.7524C221.266 47.6076 221.049 47.4266 220.832 47.137C220.723 46.9559 220.579 46.8473 220.398 46.7749C220.217 46.7025 220.036 46.6663 219.818 46.6663V47.9697H218.913V44.9285H219.818V46.1594C220.144 46.1594 220.398 46.1956 220.651 46.3043C220.904 46.4129 221.085 46.5939 221.23 46.8111C221.375 47.0284 221.556 47.1732 221.737 47.2818C221.918 47.3904 222.099 47.4266 222.316 47.4266C222.534 47.4266 222.678 47.3542 222.787 47.2456C222.896 47.137 222.932 46.9559 222.932 46.7387V45.1819L220.036 44.2044C219.637 44.0596 219.348 43.9147 219.167 43.6975C218.986 43.5165 218.877 43.2993 218.877 43.0458V41.8149H218.949Z" fill="black"/>
<path d="M93.5006 44.0596V44.9647L75 44.5302L93.5006 44.0596Z" fill="black"/>
<path d="M230.498 44.0596V44.9647L248.999 44.5302L230.498 44.0596Z" fill="black"/>
<defs>
<linearGradient id="paint0_linear_5158_265" x1="82.439" y1="29.335" x2="82.439" y2="14.3015" gradientUnits="userSpaceOnUse">
<stop stop-color="#91601D"/>
<stop offset="0.5274" stop-color="#FBDD7B"/>
<stop offset="1" stop-color="#91601D"/>
</linearGradient>
<linearGradient id="paint1_linear_5158_265" x1="96.8899" y1="29.336" x2="96.8899" y2="14.3026" gradientUnits="userSpaceOnUse">
<stop stop-color="#91601D"/>
<stop offset="0.5274" stop-color="#FBDD7B"/>
<stop offset="1" stop-color="#91601D"/>
</linearGradient>
<linearGradient id="paint2_linear_5158_265" x1="110.938" y1="29.336" x2="110.938" y2="14.3026" gradientUnits="userSpaceOnUse">
<stop stop-color="#91601D"/>
<stop offset="0.5274" stop-color="#FBDD7B"/>
<stop offset="1" stop-color="#91601D"/>
</linearGradient>
<linearGradient id="paint3_linear_5158_265" x1="122.376" y1="29.336" x2="122.376" y2="14.3026" gradientUnits="userSpaceOnUse">
<stop stop-color="#91601D"/>
<stop offset="0.5274" stop-color="#FBDD7B"/>
<stop offset="1" stop-color="#91601D"/>
</linearGradient>
<linearGradient id="paint4_linear_5158_265" x1="134.739" y1="29.4727" x2="134.739" y2="14.3026" gradientUnits="userSpaceOnUse">
<stop stop-color="#91601D"/>
<stop offset="0.5274" stop-color="#FBDD7B"/>
<stop offset="1" stop-color="#91601D"/>
</linearGradient>
<linearGradient id="paint5_linear_5158_265" x1="150.756" y1="29.6089" x2="150.756" y2="14.0287" gradientUnits="userSpaceOnUse">
<stop stop-color="#91601D"/>
<stop offset="0.5274" stop-color="#FBDD7B"/>
<stop offset="1" stop-color="#91601D"/>
</linearGradient>
<linearGradient id="paint6_linear_5158_265" x1="174.16" y1="29.336" x2="174.16" y2="14.3026" gradientUnits="userSpaceOnUse">
<stop stop-color="#91601D"/>
<stop offset="0.5274" stop-color="#FBDD7B"/>
<stop offset="1" stop-color="#91601D"/>
</linearGradient>
<linearGradient id="paint7_linear_5158_265" x1="191.708" y1="29.6089" x2="191.708" y2="14.0287" gradientUnits="userSpaceOnUse">
<stop stop-color="#91601D"/>
<stop offset="0.5274" stop-color="#FBDD7B"/>
<stop offset="1" stop-color="#91601D"/>
</linearGradient>
<linearGradient id="paint8_linear_5158_265" x1="205.925" y1="29.6089" x2="205.925" y2="14.0287" gradientUnits="userSpaceOnUse">
<stop stop-color="#91601D"/>
<stop offset="0.5274" stop-color="#FBDD7B"/>
<stop offset="1" stop-color="#91601D"/>
</linearGradient>
<linearGradient id="paint9_linear_5158_265" x1="219.441" y1="29.335" x2="219.441" y2="14.3015" gradientUnits="userSpaceOnUse">
<stop stop-color="#91601D"/>
<stop offset="0.5274" stop-color="#FBDD7B"/>
<stop offset="1" stop-color="#91601D"/>
</linearGradient>
<linearGradient id="paint10_linear_5158_265" x1="231.307" y1="29.336" x2="231.307" y2="14.3026" gradientUnits="userSpaceOnUse">
<stop stop-color="#91601D"/>
<stop offset="0.5274" stop-color="#FBDD7B"/>
<stop offset="1" stop-color="#91601D"/>
</linearGradient>
<linearGradient id="paint11_linear_5158_265" x1="242.585" y1="29.6089" x2="242.585" y2="14.0287" gradientUnits="userSpaceOnUse">
<stop stop-color="#91601D"/>
<stop offset="0.5274" stop-color="#FBDD7B"/>
<stop offset="1" stop-color="#91601D"/>
</linearGradient>
<linearGradient id="paint12_linear_5158_265" x1="8.01012" y1="31.5898" x2="26.2566" y2="31.5898" gradientUnits="userSpaceOnUse">
<stop stop-color="#F5E8A2"/>
<stop offset="1" stop-color="#8F4C21"/>
</linearGradient>
<linearGradient id="paint13_linear_5158_265" x1="9.46898" y1="31.6646" x2="23.8289" y2="31.6646" gradientUnits="userSpaceOnUse">
<stop stop-color="#F5E8A2"/>
<stop offset="1" stop-color="#8F4C21"/>
</linearGradient>
<linearGradient id="paint14_linear_5158_265" x1="10.76" y1="31.7707" x2="24.1067" y2="31.7707" gradientUnits="userSpaceOnUse">
<stop stop-color="#F5E8A2"/>
<stop offset="1" stop-color="#8F4C21"/>
</linearGradient>
<linearGradient id="paint15_linear_5158_265" x1="12.1409" y1="31.6877" x2="24.107" y2="31.6877" gradientUnits="userSpaceOnUse">
<stop stop-color="#F5E8A2"/>
<stop offset="1" stop-color="#8F4C21"/>
</linearGradient>
<linearGradient id="paint16_linear_5158_265" x1="13.5237" y1="31.4366" x2="24.016" y2="31.4366" gradientUnits="userSpaceOnUse">
<stop stop-color="#F5E8A2"/>
<stop offset="1" stop-color="#8F4C21"/>
</linearGradient>
<linearGradient id="paint17_linear_5158_265" x1="14.9983" y1="31.1013" x2="23.8332" y2="31.1013" gradientUnits="userSpaceOnUse">
<stop stop-color="#F5E8A2"/>
<stop offset="1" stop-color="#8F4C21"/>
</linearGradient>
<linearGradient id="paint18_linear_5158_265" x1="16.2913" y1="30.728" x2="23.6505" y2="30.728" gradientUnits="userSpaceOnUse">
<stop stop-color="#F5E8A2"/>
<stop offset="1" stop-color="#8F4C21"/>
</linearGradient>
<linearGradient id="paint19_linear_5158_265" x1="17.5823" y1="30.2325" x2="23.4645" y2="30.2325" gradientUnits="userSpaceOnUse">
<stop stop-color="#F5E8A2"/>
<stop offset="1" stop-color="#8F4C21"/>
</linearGradient>
<linearGradient id="paint20_linear_5158_265" x1="18.5892" y1="29.7529" x2="23.2795" y2="29.7529" gradientUnits="userSpaceOnUse">
<stop stop-color="#F5E8A2"/>
<stop offset="1" stop-color="#8F4C21"/>
</linearGradient>
<linearGradient id="paint21_linear_5158_265" x1="19.3129" y1="29.1252" x2="23.2808" y2="29.1252" gradientUnits="userSpaceOnUse">
<stop stop-color="#F5E8A2"/>
<stop offset="1" stop-color="#8F4C21"/>
</linearGradient>
<linearGradient id="paint22_linear_5158_265" x1="20.0546" y1="28.9253" x2="23.2821" y2="28.9253" gradientUnits="userSpaceOnUse">
<stop stop-color="#F5E8A2"/>
<stop offset="1" stop-color="#8F4C21"/>
</linearGradient>
<linearGradient id="paint23_linear_5158_265" x1="20.7235" y1="28.7062" x2="23.2938" y2="28.7062" gradientUnits="userSpaceOnUse">
<stop stop-color="#F5E8A2"/>
<stop offset="1" stop-color="#8F4C21"/>
</linearGradient>
<linearGradient id="paint24_linear_5158_265" x1="10.6311" y1="29.0517" x2="24.851" y2="29.0517" gradientUnits="userSpaceOnUse">
<stop stop-color="#F5E8A2"/>
<stop offset="1" stop-color="#8F4C21"/>
</linearGradient>
<linearGradient id="paint25_linear_5158_265" x1="51.9899" y1="31.5898" x2="33.7434" y2="31.5898" gradientUnits="userSpaceOnUse">
<stop stop-color="#F5E8A2"/>
<stop offset="1" stop-color="#8F4C21"/>
</linearGradient>
<linearGradient id="paint26_linear_5158_265" x1="50.531" y1="31.6646" x2="36.1711" y2="31.6646" gradientUnits="userSpaceOnUse">
<stop stop-color="#F5E8A2"/>
<stop offset="1" stop-color="#8F4C21"/>
</linearGradient>
<linearGradient id="paint27_linear_5158_265" x1="49.24" y1="31.7707" x2="35.8933" y2="31.7707" gradientUnits="userSpaceOnUse">
<stop stop-color="#F5E8A2"/>
<stop offset="1" stop-color="#8F4C21"/>
</linearGradient>
<linearGradient id="paint28_linear_5158_265" x1="47.8591" y1="31.6877" x2="35.893" y2="31.6877" gradientUnits="userSpaceOnUse">
<stop stop-color="#F5E8A2"/>
<stop offset="1" stop-color="#8F4C21"/>
</linearGradient>
<linearGradient id="paint29_linear_5158_265" x1="46.4763" y1="31.4366" x2="35.984" y2="31.4366" gradientUnits="userSpaceOnUse">
<stop stop-color="#F5E8A2"/>
<stop offset="1" stop-color="#8F4C21"/>
</linearGradient>
<linearGradient id="paint30_linear_5158_265" x1="45.0017" y1="31.1013" x2="36.1668" y2="31.1013" gradientUnits="userSpaceOnUse">
<stop stop-color="#F5E8A2"/>
<stop offset="1" stop-color="#8F4C21"/>
</linearGradient>
<linearGradient id="paint31_linear_5158_265" x1="43.7087" y1="30.728" x2="36.3495" y2="30.728" gradientUnits="userSpaceOnUse">
<stop stop-color="#F5E8A2"/>
<stop offset="1" stop-color="#8F4C21"/>
</linearGradient>
<linearGradient id="paint32_linear_5158_265" x1="42.4177" y1="30.2325" x2="36.5355" y2="30.2325" gradientUnits="userSpaceOnUse">
<stop stop-color="#F5E8A2"/>
<stop offset="1" stop-color="#8F4C21"/>
</linearGradient>
<linearGradient id="paint33_linear_5158_265" x1="41.4108" y1="29.7529" x2="36.7205" y2="29.7529" gradientUnits="userSpaceOnUse">
<stop stop-color="#F5E8A2"/>
<stop offset="1" stop-color="#8F4C21"/>
</linearGradient>
<linearGradient id="paint34_linear_5158_265" x1="40.6871" y1="29.1252" x2="36.7192" y2="29.1252" gradientUnits="userSpaceOnUse">
<stop stop-color="#F5E8A2"/>
<stop offset="1" stop-color="#8F4C21"/>
</linearGradient>
<linearGradient id="paint35_linear_5158_265" x1="39.9454" y1="28.9253" x2="36.7179" y2="28.9253" gradientUnits="userSpaceOnUse">
<stop stop-color="#F5E8A2"/>
<stop offset="1" stop-color="#8F4C21"/>
</linearGradient>
<linearGradient id="paint36_linear_5158_265" x1="39.2765" y1="28.7071" x2="36.7062" y2="28.7071" gradientUnits="userSpaceOnUse">
<stop stop-color="#F5E8A2"/>
<stop offset="1" stop-color="#8F4C21"/>
</linearGradient>
<linearGradient id="paint37_linear_5158_265" x1="49.3689" y1="29.0517" x2="35.149" y2="29.0517" gradientUnits="userSpaceOnUse">
<stop stop-color="#F5E8A2"/>
<stop offset="1" stop-color="#8F4C21"/>
</linearGradient>
<linearGradient id="paint38_linear_5158_265" x1="29.2622" y1="30.338" x2="30.6472" y2="30.338" gradientUnits="userSpaceOnUse">
<stop stop-color="#91601D"/>
<stop offset="0.5274" stop-color="#FBDD7B"/>
<stop offset="1" stop-color="#91601D"/>
</linearGradient>
<linearGradient id="paint39_linear_5158_265" x1="28.457" y1="29.3202" x2="29.5908" y2="29.3202" gradientUnits="userSpaceOnUse">
<stop stop-color="#91601D"/>
<stop offset="0.5274" stop-color="#FBDD7B"/>
<stop offset="1" stop-color="#91601D"/>
</linearGradient>
<linearGradient id="paint40_linear_5158_265" x1="30.0972" y1="31.1885" x2="31.5957" y2="31.1885" gradientUnits="userSpaceOnUse">
<stop stop-color="#91601D"/>
<stop offset="0.5274" stop-color="#FBDD7B"/>
<stop offset="1" stop-color="#91601D"/>
</linearGradient>
</defs>
</svg>
